$MeshFormat
2.2 0 8
$EndMeshFormat
$PhysicalNames
3
2 1 "carpet"
2 2 "ceiling"
3 3 "air"
$EndPhysicalNames
$Nodes
107
1 0 5.98 0
2 0 0 0
3 0 0 4.06
4 0 5.98 4.06
5 -3.706297 2.72 0
6 -3.926297 2.72 0
7 -3.926297 2.72 4.06
8 -3.706297 2.72 4.06
9 -6.68 5.98 0
10 -6.68 5.98 4.06
11 -3.706297 0 0
12 -6.68 0 0
13 -3.926297 0 0
14 -3.926297 0 4.06
15 -3.706297 0 4.06
16 -6.68 0 4.06
17 0 3.98666666667193 0
18 0 1.993333333338827 0
19 0 0 2.029999999994889
20 0 1.993333333328323 4.06
21 0 3.986666666661315 4.06
22 0 5.98 2.029999999994889
23 -3.926297 2.72 2.029999999994889
24 -3.706297 2.72 2.029999999994889
25 -2.226666666660997 5.98 0
26 -4.45333333332728 5.98 0
27 -2.226666666660997 5.98 4.06
28 -4.45333333332728 5.98 4.06
29 -6.68 5.98 2.029999999994889
30 -1.853148499995056 0 0
31 -6.68 3.98666666667193 0
32 -6.68 1.993333333338827 0
33 -5.303148500003383 0 0
34 -3.926297 1.360000000003426 0
35 -3.706297 1.360000000003426 0
36 -3.926297 0 2.029999999994889
37 -3.926297 1.360000000003426 4.06
38 -1.853148499995056 0 4.06
39 -3.706297 1.360000000003426 4.06
40 -5.303148499996617 0 4.06
41 -6.68 3.98666666667193 4.06
42 -6.68 1.993333333338827 4.06
43 -3.706297 0 2.029999999994889
44 -6.68 0 2.029999999994889
45 0 2.990000000001755 1.865731855448537
46 0 1.385242372859315 2.563246105116769
47 0 4.594757627141933 2.563246105120731
48 0 1.228554637398419 1.246093287469956
49 0 4.751445362603103 1.246093287472531
50 -3.339999999995622 5.98 2.186325602425517
51 -5.343999999997308 5.98 1.45226512048357
52 -1.335999999997423 5.98 1.45226512048357
53 -5.469290573369326 5.98 2.940305446274175
54 -1.210709426625072 5.98 2.940305446274175
55 -2.636661439471524 1.943830221789822 -0
56 -2.620798422683145 3.25571696962265 -0
57 -3.52372951374021 3.747177779254398 -0
58 -4.688911542255879 3.25906078408626 -0
59 -4.774815156887033 2.028903734653146 -0
60 -1.631938195699264 2.46283974401207 -0
61 -1.519920298831511 4.398708801990884 -0
62 -5.768679183811722 2.972862462158591 -0
63 -5.332566121145481 4.462190538310834 -0
64 -5.636894265117304 1.279183255025379 -0
65 -2.657778074056433 0.9006538690181064 -0
66 -1.386486430815586 1.199439123297284 -0
67 -2.640118507945661 4.72702943163866 -0
68 -4.614722750001691 0.6800000000017135 -0
69 -3.926297 0.9520000000013703 3.044999999997955
70 -3.926297 1.822400000001302 3.044999999998058
71 -3.926297 0.9520000000013704 1.014999999997956
72 -3.926297 1.822400000001302 1.014999999998058
73 -3.926297 1.378133333334224 2.029999999996967
74 -2.636661439471933 1.943830221789813 4.06
75 -2.615777886381415 3.268996906258649 4.06
76 -3.615921661383491 3.618541678216343 4.06
77 -4.583972402404238 3.541958668746276 4.06
78 -4.796024208293404 2.049384991175872 4.06
79 -1.631938195701516 2.462839744012455 4.06
80 -1.528214509489934 4.289306947946415 4.06
81 -5.736926531919704 2.961189015663929 4.06
82 -5.408137309094542 4.709846606780566 4.06
83 -5.635136998368004 1.28065122336339 4.06
84 -2.657778074056429 0.9006538690181811 4.06
85 -1.386486430815154 1.199439123297667 4.06
86 -4.141970037746088 4.516447364487758 4.06
87 -2.877309564141966 4.669130828281959 4.06
88 -4.614722749998307 0.6800000000017125 4.06
89 -5.716203949999324 0 3.044999999997724
90 -4.835018989999528 0 3.044999999997781
91 -4.890093050001354 0 1.014999999997725
92 -5.771278010001287 0 1.014999999997782
93 -5.303148500000248 0 2.029999999996798
94 -6.68 2.990000000003935 1.865731855448533
95 -6.68 1.385242372860857 2.563246105117916
96 -6.68 4.59475762714349 2.56324610511957
97 -6.68 1.22855463739936 1.246093287470522
98 -6.68 4.751445362604052 1.246093287471959
99 -2.572860864924419 0 2.889989296383838
100 -2.177467949795071 0 1.564786985031322
101 -1.360567169032663 0 2.686681908124586
102 -0.9265742499975278 0 1.008045678464973
103 -3.706297 0.9520000000013703 3.044999999997955
104 -3.706297 1.822400000001302 3.044999999998058
105 -3.706297 0.9520000000013704 1.014999999997956
106 -3.706297 1.822400000001302 1.014999999998058
107 -3.706297 1.378133333334224 2.029999999996967
$EndNodes
$Elements
222
1 2 2 1 1 1 17 49
2 2 2 1 1 22 1 49
3 2 2 1 1 18 2 48
4 2 2 1 1 2 19 48
5 2 2 1 1 19 3 46
6 2 2 1 1 3 20 46
7 2 2 1 1 21 4 47
8 2 2 1 1 4 22 47
9 2 2 1 1 17 18 45
10 2 2 1 1 17 45 49
11 2 2 1 1 45 18 48
12 2 2 1 1 19 46 48
13 2 2 1 1 20 21 45
14 2 2 1 1 20 45 46
15 2 2 1 1 45 21 47
16 2 2 1 1 47 22 49
17 2 2 1 1 46 45 48
18 2 2 1 1 45 47 49
19 2 2 2 2 6 24 5
20 2 2 2 2 23 24 6
21 2 2 2 2 8 23 7
22 2 2 2 2 8 24 23
23 2 2 2 3 22 52 1
24 2 2 2 3 1 52 25
25 2 2 2 3 4 54 22
26 2 2 2 3 27 54 4
27 2 2 2 3 26 51 9
28 2 2 2 3 9 51 29
29 2 2 2 3 10 53 28
30 2 2 2 3 29 53 10
31 2 2 2 3 22 54 52
32 2 2 2 3 25 50 26
33 2 2 2 3 25 52 50
34 2 2 2 3 50 51 26
35 2 2 2 3 28 50 27
36 2 2 2 3 50 54 27
37 2 2 2 3 28 53 50
38 2 2 2 3 51 53 29
39 2 2 2 3 50 53 51
40 2 2 2 3 52 54 50
41 2 2 2 4 1 61 17
42 2 2 2 4 25 61 1
43 2 2 2 4 18 66 2
44 2 2 2 4 2 66 30
45 2 2 2 4 5 57 6
46 2 2 2 4 35 55 5
47 2 2 2 4 55 56 5
48 2 2 2 4 56 57 5
49 2 2 2 4 6 59 34
50 2 2 2 4 57 58 6
51 2 2 2 4 58 59 6
52 2 2 2 4 9 63 26
53 2 2 2 4 31 63 9
54 2 2 2 4 30 65 11
55 2 2 2 4 11 65 35
56 2 2 2 4 12 64 32
57 2 2 2 4 33 64 12
58 2 2 2 4 13 68 33
59 2 2 2 4 34 68 13
60 2 2 2 4 17 60 18
61 2 2 2 4 17 61 60
62 2 2 2 4 60 66 18
63 2 2 2 4 26 67 25
64 2 2 2 4 25 67 61
65 2 2 2 4 26 63 57
66 2 2 2 4 57 67 26
67 2 2 2 4 30 66 65
68 2 2 2 4 32 62 31
69 2 2 2 4 62 63 31
70 2 2 2 4 32 64 62
71 2 2 2 4 33 68 64
72 2 2 2 4 59 68 34
73 2 2 2 4 35 65 55
74 2 2 2 4 55 60 56
75 2 2 2 4 55 66 60
76 2 2 2 4 65 66 55
77 2 2 2 4 56 67 57
78 2 2 2 4 60 61 56
79 2 2 2 4 61 67 56
80 2 2 2 4 57 63 58
81 2 2 2 4 58 62 59
82 2 2 2 4 58 63 62
83 2 2 2 4 62 64 59
84 2 2 2 4 64 68 59
85 2 2 2 5 23 6 72
86 2 2 2 5 6 34 72
87 2 2 2 5 7 23 70
88 2 2 2 5 37 7 70
89 2 2 2 5 34 13 71
90 2 2 2 5 13 36 71
91 2 2 2 5 36 14 69
92 2 2 2 5 14 37 69
93 2 2 2 5 70 23 73
94 2 2 2 5 23 72 73
95 2 2 2 5 34 71 72
96 2 2 2 5 36 69 73
97 2 2 2 5 71 36 73
98 2 2 2 5 69 37 70
99 2 2 2 5 69 70 73
100 2 2 2 5 72 71 73
101 2 2 2 6 3 85 20
102 2 2 2 6 38 85 3
103 2 2 2 6 21 80 4
104 2 2 2 6 4 80 27
105 2 2 2 6 7 76 8
106 2 2 2 6 37 78 7
107 2 2 2 6 7 77 76
108 2 2 2 6 7 78 77
109 2 2 2 6 8 74 39
110 2 2 2 6 8 75 74
111 2 2 2 6 8 76 75
112 2 2 2 6 28 82 10
113 2 2 2 6 10 82 41
114 2 2 2 6 14 88 37
115 2 2 2 6 40 88 14
116 2 2 2 6 15 84 38
117 2 2 2 6 39 84 15
118 2 2 2 6 16 83 40
119 2 2 2 6 42 83 16
120 2 2 2 6 20 79 21
121 2 2 2 6 20 85 79
122 2 2 2 6 79 80 21
123 2 2 2 6 27 87 28
124 2 2 2 6 80 87 27
125 2 2 2 6 28 86 82
126 2 2 2 6 28 87 86
127 2 2 2 6 37 88 78
128 2 2 2 6 84 85 38
129 2 2 2 6 74 84 39
130 2 2 2 6 83 88 40
131 2 2 2 6 41 81 42
132 2 2 2 6 41 82 81
133 2 2 2 6 81 83 42
134 2 2 2 6 75 79 74
135 2 2 2 6 79 85 74
136 2 2 2 6 74 85 84
137 2 2 2 6 76 87 75
138 2 2 2 6 75 80 79
139 2 2 2 6 75 87 80
140 2 2 2 6 77 86 76
141 2 2 2 6 86 87 76
142 2 2 2 6 78 81 77
143 2 2 2 6 81 82 77
144 2 2 2 6 82 86 77
145 2 2 2 6 78 83 81
146 2 2 2 6 78 88 83
147 2 2 2 7 7 39 8
148 2 2 2 7 7 37 39
149 2 2 2 7 15 37 14
150 2 2 2 7 39 37 15
151 2 2 2 8 13 11 43
152 2 2 2 8 36 13 43
153 2 2 2 8 43 15 14
154 2 2 2 8 36 43 14
155 2 2 2 9 5 34 6
156 2 2 2 9 5 35 34
157 2 2 2 9 13 35 11
158 2 2 2 9 34 35 13
159 2 2 2 10 12 92 33
160 2 2 2 10 44 92 12
161 2 2 2 10 33 91 13
162 2 2 2 10 13 91 36
163 2 2 2 10 36 90 14
164 2 2 2 10 14 90 40
165 2 2 2 10 40 89 16
166 2 2 2 10 16 89 44
167 2 2 2 10 33 92 91
168 2 2 2 10 36 93 90
169 2 2 2 10 91 93 36
170 2 2 2 10 40 90 89
171 2 2 2 10 89 93 44
172 2 2 2 10 44 93 92
173 2 2 2 10 90 93 89
174 2 2 2 10 92 93 91
175 2 2 2 11 29 98 9
176 2 2 2 11 9 98 31
177 2 2 2 11 10 96 29
178 2 2 2 11 41 96 10
179 2 2 2 11 32 97 12
180 2 2 2 11 12 97 44
181 2 2 2 11 16 95 42
182 2 2 2 11 44 95 16
183 2 2 2 11 96 98 29
184 2 2 2 11 31 94 32
185 2 2 2 11 31 98 94
186 2 2 2 11 94 97 32
187 2 2 2 11 42 94 41
188 2 2 2 11 94 96 41
189 2 2 2 11 42 95 94
190 2 2 2 11 44 97 95
191 2 2 2 11 95 97 94
192 2 2 2 11 94 98 96
193 2 2 2 12 2 102 19
194 2 2 2 12 30 102 2
195 2 2 2 12 19 101 3
196 2 2 2 12 3 101 38
197 2 2 2 12 11 100 30
198 2 2 2 12 43 100 11
199 2 2 2 12 38 99 15
200 2 2 2 12 15 99 43
201 2 2 2 12 19 102 101
202 2 2 2 12 100 102 30
203 2 2 2 12 38 101 99
204 2 2 2 12 99 100 43
205 2 2 2 12 99 101 100
206 2 2 2 12 101 102 100
207 2 2 2 13 24 106 5
208 2 2 2 13 5 106 35
209 2 2 2 13 8 104 24
210 2 2 2 13 39 104 8
211 2 2 2 13 35 105 11
212 2 2 2 13 11 105 43
213 2 2 2 13 15 103 39
214 2 2 2 13 43 103 15
215 2 2 2 13 104 107 24
216 2 2 2 13 24 107 106
217 2 2 2 13 35 106 105
218 2 2 2 13 103 104 39
219 2 2 2 13 43 107 103
220 2 2 2 13 105 107 43
221 2 2 2 13 103 107 104
222 2 2 2 13 106 107 105
$EndElements
