$MeshFormat
2.2 0 8
$EndMeshFormat
$Nodes
75
1 0 0 0
2 8 0 0
3 8 6 0
4 0 6 0
5 0 0 3.5
6 8 0 3.5
7 8 6 3.5
8 0 6 3.5
9 4 0 0
10 4 4.5 0
11 4 0 3.5
12 4 4.5 3.5
13 1.999999999994774 0 0
14 6 0 0
15 8 1.999999999992054 0
16 8 3.999999999992326 0
17 6.000000000002776 6 0
18 4.000000000016479 6 0
19 2.000000000008327 6 0
20 0 4.000000000003874 0
21 0 2.000000000005609 0
22 1.999999999994774 0 3.5
23 6 0 3.5
24 8 1.999999999992054 3.5
25 8 3.999999999992326 3.5
26 6.000000000002776 6 3.5
27 4.000000000016479 6 3.5
28 2.000000000008327 6 3.5
29 0 4.000000000003874 3.5
30 0 2.000000000005609 3.5
31 0 0 1.749999999999251
32 8 0 1.749999999999251
33 8 6 1.749999999999251
34 0 6 1.749999999999251
35 4 2.249999999992048 0
36 4 2.249999999992048 3.5
37 4 0 1.749999999999251
38 4 4.5 1.749999999999251
39 2.000000000014465 5.249999999994576 0
40 5.999999999992758 5.249999999997284 0
41 2.000000000014465 5.249999999994576 3.5
42 5.999999999992758 5.249999999997284 3.5
43 1.994696148802717 3.264467921742603 0
44 1.999116024799582 1.252411320290043 0
45 6.005303851198231 3.264467921738181 0
46 6.000883975199706 1.252411320287047 0
47 1.994339438154754 3.264958082507813 3.5
48 1.999056573024921 1.252493013750912 3.5
49 6.005303851198231 3.264467921738181 3.5
50 6.000883975199706 1.252411320287047 3.5
51 2.999999999997387 0 0.8749999999996253
52 2.999999999997387 0 2.624999999999625
53 1.999999999994774 0 1.75
54 0.9999999999973868 0 2.624999999999625
55 0.9999999999973868 0 0.8749999999996253
56 6 0 1.75
57 5 0 2.624999999999625
58 5 0 0.8749999999996253
59 7 0 0.8749999999996253
60 7 0 2.624999999999625
61 4.905092592601519 6.000000000000001 1.74999999999995
62 3.065200617294735 6.000000000000001 1.749999999999948
63 1.177533436218565 6.000000000000001 1.749999999999866
64 6.817515432101178 6.000000000000001 1.749999999999866
65 0 1.166666666669327 1.749999999999875
66 0 4.833333333335415 1.749999999999875
67 0 3.000000000004742 1.75
68 8 4.833333333329474 1.749999999999875
69 8 1.166666666662716 1.749999999999875
70 8 2.99999999999219 1.75
71 4 3.374999999996024 0.8749999999996253
72 4 3.374999999996024 2.624999999999625
73 4 2.249999999996024 1.749999999999625
74 4 1.124999999996024 2.624999999999625
75 4 1.124999999996024 0.8749999999996253
$EndNodes
$Elements
346
1 2 2 13 1 44 1 13
2 2 2 13 1 21 1 44
3 2 2 13 1 4 20 39
4 2 2 13 1 13 9 44
5 2 2 13 1 44 9 35
6 2 2 13 1 10 43 35
7 2 2 13 1 39 43 10
8 2 2 13 1 20 21 43
9 2 2 13 1 43 39 20
10 2 2 13 1 44 43 21
11 2 2 13 1 35 43 44
12 2 2 13 2 14 2 46
13 2 2 13 2 46 2 15
14 2 2 13 2 16 3 40
15 2 2 13 2 46 9 14
16 2 2 13 2 35 9 46
17 2 2 13 2 35 45 10
18 2 2 13 2 10 45 40
19 2 2 13 2 45 15 16
20 2 2 13 2 15 45 46
21 2 2 13 2 16 40 45
22 2 2 13 2 46 45 35
23 2 2 13 3 3 17 40
24 2 2 13 3 19 4 39
25 2 2 13 3 39 10 18
26 2 2 13 3 18 10 40
27 2 2 13 3 40 17 18
28 2 2 13 3 19 39 18
29 2 2 11 4 48 5 22
30 2 2 11 4 30 5 48
31 2 2 11 4 29 41 8
32 2 2 11 4 22 11 48
33 2 2 11 4 48 11 36
34 2 2 11 4 12 47 36
35 2 2 11 4 41 47 12
36 2 2 11 4 29 30 47
37 2 2 11 4 47 41 29
38 2 2 11 4 48 47 30
39 2 2 11 4 36 47 48
40 2 2 11 5 23 6 50
41 2 2 11 5 50 6 24
42 2 2 11 5 42 25 7
43 2 2 11 5 50 11 23
44 2 2 11 5 36 11 50
45 2 2 11 5 36 49 12
46 2 2 11 5 12 49 42
47 2 2 11 5 49 24 25
48 2 2 11 5 24 49 50
49 2 2 11 5 25 42 49
50 2 2 11 5 50 49 36
51 2 2 11 6 42 7 26
52 2 2 11 6 28 8 41
53 2 2 11 6 41 12 27
54 2 2 11 6 27 12 42
55 2 2 11 6 27 42 26
56 2 2 11 6 28 41 27
57 2 2 14 7 55 1 13
58 2 2 14 7 31 1 55
59 2 2 14 7 22 5 54
60 2 2 14 7 54 5 31
61 2 2 14 7 13 9 51
62 2 2 14 7 51 9 37
63 2 2 14 7 52 11 22
64 2 2 14 7 37 11 52
65 2 2 14 7 51 53 13
66 2 2 14 7 13 53 55
67 2 2 14 7 22 53 52
68 2 2 14 7 54 53 22
69 2 2 14 7 54 31 55
70 2 2 14 7 51 37 52
71 2 2 14 7 51 52 53
72 2 2 14 7 53 54 55
73 2 2 14 8 14 2 59
74 2 2 14 8 59 2 32
75 2 2 14 8 60 6 23
76 2 2 14 8 32 6 60
77 2 2 14 8 58 9 14
78 2 2 14 8 37 9 58
79 2 2 14 8 23 11 57
80 2 2 14 8 57 11 37
81 2 2 14 8 14 56 58
82 2 2 14 8 59 56 14
83 2 2 14 8 57 56 23
84 2 2 14 8 23 56 60
85 2 2 14 8 59 32 60
86 2 2 14 8 57 37 58
87 2 2 14 8 56 57 58
88 2 2 14 8 59 60 56
89 2 2 14 9 64 17 3
90 2 2 14 9 33 64 3
91 2 2 14 9 19 63 4
92 2 2 14 9 63 34 4
93 2 2 14 9 26 64 7
94 2 2 14 9 64 33 7
95 2 2 14 9 63 28 8
96 2 2 14 9 34 63 8
97 2 2 14 9 61 18 17
98 2 2 14 9 17 64 61
99 2 2 14 9 62 19 18
100 2 2 14 9 18 61 62
101 2 2 14 9 63 19 62
102 2 2 14 9 61 26 27
103 2 2 14 9 64 26 61
104 2 2 14 9 62 27 28
105 2 2 14 9 61 27 62
106 2 2 14 9 28 63 62
107 2 2 14 10 21 1 65
108 2 2 14 10 65 1 31
109 2 2 14 10 66 4 20
110 2 2 14 10 34 4 66
111 2 2 14 10 65 5 30
112 2 2 14 10 31 5 65
113 2 2 14 10 29 8 66
114 2 2 14 10 66 8 34
115 2 2 14 10 20 21 67
116 2 2 14 10 20 67 66
117 2 2 14 10 65 67 21
118 2 2 14 10 30 29 67
119 2 2 14 10 66 67 29
120 2 2 14 10 30 67 65
121 2 2 14 11 15 2 69
122 2 2 14 11 69 2 32
123 2 2 14 11 68 3 16
124 2 2 14 11 33 3 68
125 2 2 14 11 69 6 24
126 2 2 14 11 32 6 69
127 2 2 14 11 25 7 68
128 2 2 14 11 68 7 33
129 2 2 14 11 16 15 70
130 2 2 14 11 69 70 15
131 2 2 14 11 16 70 68
132 2 2 14 11 24 25 70
133 2 2 14 11 24 70 69
134 2 2 14 11 68 70 25
135 2 2 14 12 75 9 35
136 2 2 14 12 37 9 75
137 2 2 14 12 35 10 71
138 2 2 14 12 71 10 38
139 2 2 14 12 36 11 74
140 2 2 14 12 74 11 37
141 2 2 14 12 72 12 36
142 2 2 14 12 38 12 72
143 2 2 14 12 71 73 35
144 2 2 14 12 35 73 75
145 2 2 14 12 36 73 72
146 2 2 14 12 74 73 36
147 2 2 14 12 74 37 75
148 2 2 14 12 71 38 72
149 2 2 14 12 71 72 73
150 2 2 14 12 73 74 75
151 4 2 1 1 72 71 47 38
152 4 2 1 1 38 72 71 45
153 4 2 1 1 71 47 73 72
154 4 2 1 1 73 71 72 45
155 4 2 1 1 43 63 47 38
156 4 2 1 1 49 38 64 45
157 4 2 1 1 50 73 49 46
158 4 2 1 1 44 73 43 48
159 4 2 1 1 45 49 73 46
160 4 2 1 1 47 43 73 48
161 4 2 1 1 41 63 62 38
162 4 2 1 1 63 39 62 38
163 4 2 1 1 43 39 63 38
164 4 2 1 1 63 41 47 38
165 4 2 1 1 42 49 38 64
166 4 2 1 1 40 64 38 45
167 4 2 1 1 50 73 46 56
168 4 2 1 1 73 44 53 48
169 4 2 1 1 42 38 61 64
170 4 2 1 1 38 61 64 40
171 4 2 1 1 47 71 43 38
172 4 2 1 1 49 72 38 45
173 4 2 1 1 49 70 50 46
174 4 2 1 1 67 44 43 48
175 4 2 1 1 70 49 45 46
176 4 2 1 1 47 67 43 48
177 4 2 1 1 46 70 50 69
178 4 2 1 1 65 44 67 48
179 4 2 1 1 74 53 73 75
180 4 2 1 1 75 73 74 56
181 4 2 1 1 63 66 43 47
182 4 2 1 1 64 68 49 45
183 4 2 1 1 47 71 73 43
184 4 2 1 1 72 49 73 45
185 4 2 1 1 56 46 50 69
186 4 2 1 1 44 65 53 48
187 4 2 1 1 50 74 73 56
188 4 2 1 1 44 73 53 75
189 4 2 1 1 46 73 75 56
190 4 2 1 1 73 53 74 48
191 4 2 1 1 70 49 68 45
192 4 2 1 1 67 43 66 47
193 4 2 1 1 43 39 66 63
194 4 2 1 1 66 63 41 47
195 4 2 1 1 49 42 68 64
196 4 2 1 1 68 64 40 45
197 4 2 1 1 74 51 53 75
198 4 2 1 1 52 51 53 74
199 4 2 1 1 74 57 75 56
200 4 2 1 1 57 58 75 56
201 4 2 1 1 53 51 44 75
202 4 2 1 1 74 50 57 56
203 4 2 1 1 75 58 46 56
204 4 2 1 1 53 52 74 48
205 4 2 1 1 50 60 56 69
206 4 2 1 1 46 56 59 69
207 4 2 1 1 65 55 44 53
208 4 2 1 1 53 65 54 48
209 4 2 1 1 72 42 49 38
210 4 2 1 1 40 38 71 45
211 4 2 1 1 39 43 71 38
212 4 2 1 1 72 47 41 38
213 4 2 1 1 71 38 40 10
214 4 2 1 1 38 71 39 10
215 4 2 1 1 72 12 42 38
216 4 2 1 1 41 12 72 38
217 4 2 1 1 67 21 44 65
218 4 2 1 1 24 50 70 69
219 4 2 1 1 46 15 70 69
220 4 2 1 1 65 67 30 48
221 4 2 1 1 74 52 51 37
222 4 2 1 1 74 51 75 37
223 4 2 1 1 75 58 57 37
224 4 2 1 1 75 57 74 37
225 4 2 1 1 36 73 47 72
226 4 2 1 1 43 73 35 71
227 4 2 1 1 49 73 36 72
228 4 2 1 1 71 73 35 45
229 4 2 1 1 36 74 73 50
230 4 2 1 1 46 73 35 75
231 4 2 1 1 44 35 73 75
232 4 2 1 1 48 74 73 36
233 4 2 1 1 43 21 44 67
234 4 2 1 1 24 70 50 49
235 4 2 1 1 70 45 15 46
236 4 2 1 1 67 47 30 48
237 4 2 1 1 20 43 66 67
238 4 2 1 1 49 25 70 68
239 4 2 1 1 45 68 70 16
240 4 2 1 1 66 67 47 29
241 4 2 1 1 48 73 47 36
242 4 2 1 1 73 35 44 43
243 4 2 1 1 50 73 36 49
244 4 2 1 1 73 35 45 46
245 4 2 1 1 41 12 47 72
246 4 2 1 1 10 40 71 45
247 4 2 1 1 43 39 71 10
248 4 2 1 1 42 49 12 72
249 4 2 1 1 20 43 39 66
250 4 2 1 1 25 49 42 68
251 4 2 1 1 45 40 68 16
252 4 2 1 1 47 41 66 29
253 4 2 1 1 38 39 62 10
254 4 2 1 1 12 41 62 38
255 4 2 1 1 38 61 40 10
256 4 2 1 1 38 12 42 61
257 4 2 1 1 59 56 60 69
258 4 2 1 1 65 54 55 53
259 4 2 1 1 63 8 66 41
260 4 2 1 1 66 39 4 63
261 4 2 1 1 42 7 68 64
262 4 2 1 1 3 68 64 40
263 4 2 1 1 24 60 50 69
264 4 2 1 1 15 46 59 69
265 4 2 1 1 55 44 21 65
266 4 2 1 1 30 54 65 48
267 4 2 1 1 41 8 66 29
268 4 2 1 1 4 20 39 66
269 4 2 1 1 42 7 25 68
270 4 2 1 1 40 3 68 16
271 4 2 1 1 36 47 12 72
272 4 2 1 1 71 35 43 10
273 4 2 1 1 71 35 10 45
274 4 2 1 1 49 36 12 72
275 4 2 1 1 46 35 9 75
276 4 2 1 1 35 44 9 75
277 4 2 1 1 48 11 74 36
278 4 2 1 1 36 11 74 50
279 4 2 1 1 43 20 21 67
280 4 2 1 1 70 45 16 15
281 4 2 1 1 70 24 25 49
282 4 2 1 1 67 47 29 30
283 4 2 1 1 38 62 27 61
284 4 2 1 1 61 38 62 18
285 4 2 1 1 18 38 62 10
286 4 2 1 1 12 62 27 38
287 4 2 1 1 61 38 18 10
288 4 2 1 1 38 27 12 61
289 4 2 1 1 68 33 3 64
290 4 2 1 1 68 7 33 64
291 4 2 1 1 4 66 63 34
292 4 2 1 1 63 66 8 34
293 4 2 1 1 18 62 39 10
294 4 2 1 1 12 62 41 27
295 4 2 1 1 40 61 18 10
296 4 2 1 1 27 42 12 61
297 4 2 1 1 11 74 52 48
298 4 2 1 1 44 51 9 75
299 4 2 1 1 58 46 9 75
300 4 2 1 1 50 11 74 57
301 4 2 1 1 31 54 55 65
302 4 2 1 1 59 60 32 69
303 4 2 1 1 1 55 44 21
304 4 2 1 1 50 6 60 24
305 4 2 1 1 2 15 46 59
306 4 2 1 1 54 30 5 48
307 4 2 1 1 54 5 30 65
308 4 2 1 1 1 55 21 65
309 4 2 1 1 24 6 60 69
310 4 2 1 1 2 15 59 69
311 4 2 1 1 28 41 62 27
312 4 2 1 1 39 19 62 18
313 4 2 1 1 42 27 26 61
314 4 2 1 1 18 17 61 40
315 4 2 1 1 41 63 8 28
316 4 2 1 1 39 19 4 63
317 4 2 1 1 26 7 42 64
318 4 2 1 1 17 3 64 40
319 4 2 1 1 22 11 52 48
320 4 2 1 1 44 9 51 13
321 4 2 1 1 14 46 9 58
322 4 2 1 1 11 50 23 57
323 4 2 1 1 2 46 14 59
324 4 2 1 1 23 50 6 60
325 4 2 1 1 44 55 1 13
326 4 2 1 1 22 54 5 48
327 4 2 1 1 26 42 61 64
328 4 2 1 1 17 64 61 40
329 4 2 1 1 62 63 41 28
330 4 2 1 1 62 19 39 63
331 4 2 1 1 22 52 53 48
332 4 2 1 1 50 23 57 56
333 4 2 1 1 58 14 46 56
334 4 2 1 1 51 44 13 53
335 4 2 1 1 22 53 54 48
336 4 2 1 1 23 50 60 56
337 4 2 1 1 56 14 46 59
338 4 2 1 1 13 44 55 53
339 4 2 1 1 5 54 31 65
340 4 2 1 1 55 1 31 65
341 4 2 1 1 6 32 60 69
342 4 2 1 1 59 32 2 69
343 4 2 1 1 75 51 9 37
344 4 2 1 1 9 58 75 37
345 4 2 1 1 52 74 11 37
346 4 2 1 1 57 11 74 37
$EndElements
