$MeshFormat
2.2 0 8
$EndMeshFormat
$Nodes
414
1 0 0 0
2 5.51566 0 0
3 6.21333 4.01907 0
4 0 5.09763 0
5 0 0 3.3
6 5.51566 0 3.3
7 6.21333 4.01907 3.3
8 0 5.09763 3.3
9 2.6 0 0
10 2.6 0 2.165
11 0.5 0 2.165
12 0.5 0 0
13 3.41566 0 0
14 4.01566 0 0
15 4.01566 0 2.7
16 3.41566 0 2.7
17 4.79566 0 0
18 5.39566 0 0
19 5.39566 0 2.7
20 4.79566 0 2.7
21 5.87996 2.09862 1.02
22 5.87996 2.09862 2.5
23 5.66617 0.867034 2.5
24 5.66617 0.867034 1.02
25 5.82908 4.08577 0
26 4.64676 4.291 0
27 4.64676 4.291 2.7
28 5.82908 4.08577 2.7
29 2.73904 4.62216 0
30 1.55672 4.8274 0
31 1.55672 4.8274 2.7
32 2.73904 4.62216 2.7
33 1.35967 4.86161 0
34 0.17735 5.06684 0
35 0.17735 5.06684 2.7
36 1.35967 4.86161 2.7
37 0 4.52763 0
38 0 3.32763 0
39 0 3.32763 2.7
40 0 4.52763 2.7
41 0 0.57 2.7
42 0 1.77 2.7
43 0 1.77 0
44 0 0.57 0
45 6.15551 3.97835 0
46 5.4736 0.05 0
47 0.05 0.05 0
48 0.05 5.0382 0
49 0.9192766666647523 0 0
50 1.838553333328571 0 0
51 2.757829999992744 0 0
52 3.677106666661772 0 0
53 4.596383333331117 0 0
54 5.655193999999696 0.8038139999982504 0
55 5.7947279999993 1.60762799999597 0
56 5.934261999999308 2.411441999996016 0
57 6.073795999999637 3.215255999997911 0
58 5.325711428573322 4.173149999999671 0
59 4.438092857147326 4.327229999999225 0
60 3.550474285720834 4.481309999998863 0
61 2.662855714292661 4.635389999998794 0
62 1.775237142861715 4.789469999999207 0
63 0.8876185714305906 4.943549999999649 0
64 0 4.248025000002111 0
65 0 3.398420000004513 0
66 0 2.548815000006682 0
67 0 1.699210000004513 0
68 0 0.8496050000022279 0
69 0.9192766666647523 0 3.3
70 1.838553333328571 0 3.3
71 2.757829999992744 0 3.3
72 3.677106666661772 0 3.3
73 4.596383333331117 0 3.3
74 5.655193999999696 0.8038139999982504 3.3
75 5.7947279999993 1.60762799999597 3.3
76 5.934261999999308 2.411441999996016 3.3
77 6.073795999999637 3.215255999997911 3.3
78 5.325711428573322 4.173149999999671 3.3
79 4.438092857147326 4.327229999999225 3.3
80 3.550474285720834 4.481309999998863 3.3
81 2.662855714292661 4.635389999998794 3.3
82 1.775237142861715 4.789469999999207 3.3
83 0.8876185714305906 4.943549999999649 3.3
84 0 4.248025000002111 3.3
85 0 3.398420000004513 3.3
86 0 2.548815000006682 3.3
87 0 1.699210000004513 3.3
88 0 0.8496050000022279 3.3
89 0 0 0.8249999999980803
90 0 0 1.649999999995742
91 0 0 2.474999999997828
92 5.51566 0 0.8249999999980803
93 5.51566 0 1.649999999995742
94 5.51566 0 2.474999999997828
95 6.21333 4.01907 0.8249999999980803
96 6.21333 4.01907 1.649999999995742
97 6.21333 4.01907 2.474999999997828
98 0 5.09763 0.8249999999980803
99 0 5.09763 1.649999999995742
100 0 5.09763 2.474999999997828
101 2.6 0 0.7216666666649955
102 2.6 0 1.44333333333151
103 1.900000000001706 0 2.165
104 1.200000000001662 0 2.165
105 0.5 0 1.443333333334968
106 0.5 0 0.7216666666684604
107 1.199999999998236 0 0
108 1.899999999998482 0 0
109 4.01566 0 0.8999999999978212
110 4.01566 0 1.799999999997661
111 3.41566 0 1.800000000002515
112 3.41566 0 0.9000000000025286
113 5.39566 0 0.8999999999978212
114 5.39566 0 1.799999999997661
115 4.79566 0 1.800000000002515
116 4.79566 0 0.9000000000025286
117 5.87996 2.09862 1.759999999998093
118 5.773065000000388 1.482827000002235 2.5
119 5.66617 0.867034 1.760000000002081
120 5.773064999999612 1.482826999997765 1.02
121 5.237920000001853 4.188384999999679 0
122 4.64676 4.291 0.8999999999978212
123 4.64676 4.291 1.799999999997661
124 5.237919999998147 4.188385000000322 2.7
125 5.82908 4.08577 1.800000000002515
126 5.82908 4.08577 0.9000000000025286
127 2.14788000000173 4.7247799999997 0
128 1.55672 4.8274 0.8999999999978212
129 1.55672 4.8274 1.799999999997661
130 2.147879999998649 4.724780000000234 2.7
131 2.73904 4.62216 1.800000000002515
132 2.73904 4.62216 0.9000000000025286
133 0.768510000001579 4.964224999999725 0
134 0.17735 5.06684 0.8999999999978212
135 0.17735 5.06684 1.799999999997661
136 0.7685099999984528 4.964225000000268 2.7
137 1.35967 4.86161 1.800000000002515
138 1.35967 4.86161 0.9000000000025286
139 0 3.927630000000693 0
140 0 3.32763 0.8999999999978212
141 0 3.32763 1.799999999997661
142 0 3.927629999997745 2.7
143 0 4.52763 1.800000000002515
144 0 4.52763 0.9000000000025286
145 0 1.169999999998462 2.7
146 0 1.77 1.800000000002515
147 0 1.77 0.9000000000025286
148 0 1.170000000001778 0
149 0 0.57 0.8999999999978212
150 0 0.57 1.799999999997661
151 5.985032500000344 2.99626250000198 0
152 5.814555000000844 2.014175000004864 0
153 5.644077500000423 1.032087500002433 0
154 4.569666666669096 0.05 0
155 3.665733333338393 0.05 0
156 2.76180000000772 0.05 0
157 1.857866666671842 0.05 0
158 0.9539333333358773 0.05 0
159 0.05 1.047639999998004 0
160 0.05 2.045279999995111 0
161 0.05 3.042919999995023 0
162 0.05 4.040559999997832 0
163 0.9222157142842167 4.886792857143117 0
164 1.794431428567507 4.735385714286394 0
165 2.666647142850746 4.583978571429681 0
166 3.538862857136212 4.432571428572582 0
167 4.411078571424007 4.281164285715078 0
168 5.283294285711344 4.129757142857653 0
169 0.4907168539130297 2.873729920385495 0
170 0.6142916010776298 2.077490175634578 0
171 1.050940983870947 2.751643951004505 0
172 4.557602033097184 1.444949159183289 0
173 5.175054943685419 1.310907067497139 0
174 5.143906122425692 1.95648924364549 0
175 4.938160775674522 0.7279690207453307 0
176 4.748270383457204 3.474896555870564 0
177 5.015258282721614 2.721639225375657 0
178 5.551771349125182 3.335908963539969 0
179 1.266886445835681 1.975906530358587 0
180 4.129070343933713 0.8081438977933062 0
181 3.846668781243294 1.691357426558427 0
182 4.386531475051329 2.242370009824868 0
183 4.334400415254382 2.916745297007178 0
184 4.043081142607004 3.540300298506902 0
185 3.375473299101592 0.8943371903892693 0
186 3.750109669160044 2.634104467208361 0
187 3.092492979813902 2.798531600232359 0
188 3.437139230065426 3.407515472612494 0
189 2.749538065945505 3.583330998455819 0
190 3.110453660084968 1.841911165716302 0
191 2.308194028380572 1.592678174118605 0
192 2.106600719050425 0.7941267347077541 0
193 2.731710342693063 1.02461065226758 0
194 2.07474494547861 3.268802289376384 0
195 2.40616554519543 2.525388094092478 0
196 1.86808676200005 1.971757400033601 0
197 1.639648371295956 2.620705031723859 0
198 1.626147134541818 1.398275001358069 0
199 0.7717856551597783 1.354688733585074 0
200 0.6136463563066478 0.590698064425475 0
201 1.377169459708708 0.7491965885400732 0
202 2.022893761051677 3.966379532879364 0
203 0.4939576082792372 4.236907782895913 0
204 0.8151343303590267 3.569729296878113 0
205 1.478968300744356 3.392302751046403 0
206 1.260992747885806 4.164092400491094 0
207 0.4907168539130297 2.873729920385495 3.299999999999999
208 0.6142916010776298 2.077490175634578 3.299999999999999
209 1.050940983870947 2.751643951004505 3.299999999999999
210 4.557602033097184 1.444949159183289 3.299999999999999
211 5.175054943685419 1.310907067497139 3.299999999999999
212 5.143906122425692 1.95648924364549 3.299999999999999
213 4.938160775674522 0.7279690207453307 3.299999999999999
214 4.748270383457204 3.474896555870564 3.299999999999999
215 5.015258282721614 2.721639225375657 3.299999999999999
216 5.551771349125182 3.335908963539969 3.299999999999999
217 1.266886445835681 1.975906530358587 3.299999999999999
218 4.129070343933713 0.8081438977933062 3.299999999999999
219 3.846668781243294 1.691357426558427 3.299999999999999
220 4.386531475051329 2.242370009824868 3.299999999999999
221 4.334400415254382 2.916745297007178 3.299999999999999
222 4.043081142607004 3.540300298506902 3.299999999999999
223 3.375473299101592 0.8943371903892693 3.299999999999999
224 3.750109669160044 2.634104467208361 3.299999999999999
225 3.092492979813902 2.798531600232359 3.299999999999999
226 3.437139230065426 3.407515472612494 3.299999999999999
227 2.749538065945505 3.583330998455819 3.299999999999999
228 3.110453660084968 1.841911165716302 3.299999999999999
229 2.308194028380572 1.592678174118605 3.299999999999999
230 2.106600719050425 0.7941267347077541 3.299999999999999
231 2.731710342693063 1.02461065226758 3.299999999999999
232 2.07474494547861 3.268802289376384 3.299999999999999
233 2.40616554519543 2.525388094092478 3.299999999999999
234 1.86808676200005 1.971757400033601 3.299999999999999
235 1.639648371295956 2.620705031723859 3.299999999999999
236 1.626147134541818 1.398275001358069 3.299999999999999
237 0.7717856551597783 1.354688733585074 3.299999999999999
238 0.6136463563066478 0.590698064425475 3.299999999999999
239 1.377169459708708 0.7491965885400732 3.299999999999999
240 2.022893761051677 3.966379532879364 3.299999999999999
241 0.4939576082792372 4.236907782895913 3.299999999999999
242 0.8151343303590267 3.569729296878113 3.299999999999999
243 1.478968300744356 3.392302751046403 3.299999999999999
244 1.260992747885806 4.164092400491094 3.299999999999999
245 2.404327510820933 0 2.49794254824849
246 2.142772397114995 0 1.649999999999657
247 2.905750814775185 0 1.649999999999773
248 2.404327510820937 0 0.8020574517511688
249 4.897160021049292 0 2.225490452682442
250 4.911820835433929 0 2.775490452681231
251 4.03424080675201 0 2.576961810738943
252 1.614419962752367 0 2.45347439312446
253 1.24091084952126 0 1.651244928608207
254 4.50841846306052 0 1.649999999998463
255 3.672049090686107 0 1.649999999999477
256 1.614419962752368 0 0.846525606874675
257 4.034240806751973 0 0.7230381892602524
258 4.91182083543392 0 0.5245095473170622
259 4.897160021049283 0 1.07450954731392
260 0.6967481319398711 0 2.278658212177343
261 0.4168765894359792 0 2.824020763994813
262 3.18453463796935 0 2.601399345976707
263 0.6953185888248095 0 1.024229407075553
264 3.18453463796934 0 0.6986006540231879
265 0.681786053743149 0 1.654581952397553
266 0.416876589435934 0 0.475979236003423
267 5.724960999999475 1.205720999996978 1.237499999998935
268 5.661436074006123 0.8397727374772992 0.5685039595948846
269 5.80712337097004 1.679034056738229 0.7523685978566325
270 5.61672614713707 0.5822121059729957 1.164659128766412
271 5.669861029330779 0.888306406972418 1.723932053879826
272 5.974298587311403 2.642080908030504 1.651146629090045
273 6.097998297818833 3.354678261376784 1.263874112260415
274 6.097857891170104 3.353869420306204 2.11604132969423
275 5.820090379214767 1.753733146316583 1.709285242552012
276 5.913768216813808 2.293383391789626 2.343240684901529
277 5.838338529459653 1.858855329017168 2.609095236900411
278 5.907262772601269 2.255907456646525 0.9989223849939624
279 5.612884603897842 0.5600821144490903 2.189197715315786
280 5.728844052313324 1.228090112991685 2.392950260607397
281 5.637161776035029 0.699935704572499 2.826191329320169
282 6.001851588083906 2.80080557558786 2.446676315965175
283 6.000539525659207 2.793247173006077 0.8818114778417337
284 6.088875970579497 3.302127239062798 0.4951142650167049
285 6.089071246542161 3.303252165981331 2.822952940942872
286 4.816425047602412 4.261556042984671 0.9211309751630408
287 5.292485533519804 4.178917619194036 1.678488796837675
288 5.679102011237781 4.111805608692823 0.8457699576872436
289 4.719375257770647 4.278402729273818 1.675133624173323
290 5.654981129190324 4.115992706197882 2.483198142138124
291 4.671699755317658 4.286678628015023 2.495700081868578
292 3.805216982850653 4.437089705339424 2.513780515537217
293 4.090473819677372 4.387572519880446 1.608090238795078
294 1.420935105915756 4.850972608901104 2.587918984031626
295 0.9208007358182539 4.937789971927431 1.649999999998589
296 0.5382257355274335 5.004200430138031 2.493819830670631
297 1.79303810492594 4.786379965244254 1.664540028022367
298 0.5382257355274433 5.004200430138029 0.8061801693266686
299 1.420935105915815 4.850972608901094 0.7120810159676001
300 2.301431792369118 4.698128883211155 2.420496266100623
301 2.365772444993708 4.686960113116088 1.683529452073937
302 3.99533600632288 4.404087309851624 0.715296774008394
303 2.328353444542987 4.693455605408648 0.9332144499618263
304 3.074629811388305 4.563910926754096 1.733822633955008
305 3.19711756943098 4.542648512506904 0.7602860315918513
306 3.570535758508306 4.477827567536776 1.183564604018379
307 3.021018091683356 4.573217282026546 2.675795557882491
308 0 4.18439481060826 1.689624897950526
309 0 4.535627837841583 1.099520570933075
310 0 3.752251510305882 0.7900615214266767
311 0 4.546232869629915 0.5429164184715665
312 0 0.5607295862889153 2.083788881953766
313 0 0.5700025822199185 2.750119890383887
314 0 1.216349582978008 2.451990735775279
315 0 0.893777289999821 1.575273203035109
316 0 2.124025654321189 2.498472969153548
317 0 1.756970373558701 1.649999999999421
318 0 2.920622863565586 0.8001347242131603
319 0 2.123917923231422 0.8013873590405572
320 0 2.536237655539622 1.650064531931269
321 0 2.921269250104127 2.499027244954039
322 0 3.37061986845671 1.651364894226885
323 0 1.318328979747759 0.8064120566077895
324 0 0.5102852174255411 0.809447543878655
325 0 3.768018296056372 2.466598499936526
326 0 4.582221350989009 2.480203901184247
327 1.759198947149317 0 1.184284762693061
328 2.09179639563917 0 1.742584282443097
329 1.599783068528814 0 1.755303201963028
330 1.032733279655037 0 1.449535687473662
331 1.170150941905469 0 0.7121618476561166
332 1.641774172694207 0 0.5180490644311566
333 2.178154791151182 0 0.6690258723281954
334 0.8388289834823798 0 0.3996611733523568
335 5.773065 1.482827000000001 1.760000000000043
336 5.23791999999969 4.188385000000054 2.175000000000046
337 5.237919999999999 4.188385000000001 1.350000000000095
338 5.237920000000307 4.188384999999947 0.5250000000000741
339 2.147879999999776 4.72478000000004 2.175000000000045
340 2.147880000000001 4.724780000000001 1.350000000000095
341 2.147880000000289 4.724779999999949 0.5250000000000742
342 0.7685099999997419 4.964225000000043 2.175000000000046
343 0.7685099999999998 4.964225 1.350000000000095
344 0.768510000000263 4.964224999999954 0.5250000000000741
345 0 3.927629999999624 2.175000000000045
346 0 3.92763 1.350000000000095
347 0 3.927630000000116 0.5250000000000742
348 0 1.170000000000296 0.5250000000000741
349 0 1.17 1.350000000000095
350 0 1.169999999999744 2.175000000000045
351 1.668655273586365 3.109019069712846 0
352 2.474573357389494 2.617450783501407 0
353 1.665382511184117 2.160086134296221 0
354 2.298807935312349 3.574965175912075 0
355 4.718965946529372 1.404498467975841 0
356 5.176288767943269 1.918279654627693 0
357 4.884216855208384 0.6642471769927957 0
358 4.163922971359173 0.8128338493693154 0
359 3.394557499904954 0.9093179734282842 0
360 4.511195544090616 2.327675817219621 0
361 3.844993130348999 2.551204025901448 0
362 4.495390873091059 3.171270161019756 0
363 3.758602129135381 3.492987807915504 0
364 3.129802989921854 1.82821354815507 0
365 3.934094040574367 1.671866809643187 0
366 2.711991669010507 1.042993641727989 0
367 2.015039673453968 0.8103217202748935 0
368 2.258758181764041 1.617114966781695 0
369 2.996394437221888 3.58619396068416 0
370 3.240873208803523 2.815210025231518 0
371 0.8120047855557023 3.502198951126341 0
372 0.8860702309804266 4.363553497608174 0
373 1.687769465513253 3.978183494232279 0
374 0.8204338942276864 2.62363961025135 0
375 5.253826012820014 3.561627586176271 0
376 5.192649857511577 2.812961469798199 0
377 1.034283440833278 0.721607669725382 0
378 1.465538090127292 1.38021405680374 0
379 0.8476063222439643 1.663077911001037 0
380 4.289880453951438 2.57410120130018 1.65
381 1.71646770388459 3.039231279872585 1.65
382 2.816279832928783 1.772641442579365 1.65
383 3.071227592416595 3.183184095251058 1.34248091212284
384 1.40750756367864 1.662828791090149 1.907682360680689
385 4.395263303527672 1.28672067089787 1.315019411339517
386 1.569263137338658 2.231247946522409 0.9819319239426675
387 1.112124419818243 3.811354460902528 2.228085097408158
388 1.214763937607284 3.734359955861831 0.9910919601250262
389 4.988587369932088 3.231717531176918 2.231435666751387
390 4.76234730176798 1.764457801231095 2.252351224189449
391 2.464797128166836 3.687759021417007 2.078694373290868
392 3.33863217983099 2.567665170024946 2.235293670565472
393 3.703262766967634 1.335789439969471 2.223307721380881
394 1.966126390571161 1.175529786826321 1.054569162133683
395 1.966867307213659 2.371210020914931 2.372081099598465
396 2.220703882326979 3.585924192898562 0.9556839248071446
397 3.503491096004965 2.264548015842639 0.9816177895597895
398 4.972525291548129 3.130437610920684 1.008809680729695
399 3.840640335352613 3.450864327787599 1.995203935632686
400 4.770947569817807 2.114606674264664 0.9093822989438178
401 0.9768954615770541 2.661054135762094 2.270061878811535
402 0.8751913195169322 0.8825254462212142 1.931225027329951
403 4.001302683001705 3.288807644458136 1.037547663292606
404 2.225862769203091 0.98269901049047 2.088680793134826
405 2.533071526020185 2.439899050343191 0.9814025776258951
406 0.8711533721658603 2.858564494555808 1.215911421325311
407 4.467431636054899 2.587826394775059 2.503537014166969
408 0.9881498384085263 1.407906438213942 0.9828220153623924
409 3.361453341595837 1.007302697120642 1.088636298464588
410 1.769846910290473 3.296737074272331 2.482449875831152
411 4.775838757893979 0.8812147253565984 2.034945114815995
412 5.143217534711525 2.331768469459135 1.68554504238476
413 5.043658751387638 1.213219187966553 0.7979238693826612
414 1.644776183542811 3.024301999681629 0.7311659864710439
$EndNodes
$Elements
1398
1 2 2 11 1 200 1 49
2 2 2 11 1 68 1 200
3 2 2 11 1 53 2 175
4 2 2 11 1 175 2 54
5 2 2 11 1 57 3 178
6 2 2 11 1 178 3 58
7 2 2 11 1 203 63 4
8 2 2 11 1 64 203 4
9 2 2 11 1 201 49 50
10 2 2 11 1 200 49 201
11 2 2 11 1 192 50 51
12 2 2 11 1 50 192 201
13 2 2 11 1 185 51 52
14 2 2 11 1 51 185 193
15 2 2 11 1 192 51 193
16 2 2 11 1 52 53 180
17 2 2 11 1 185 52 180
18 2 2 11 1 180 53 175
19 2 2 11 1 54 55 173
20 2 2 11 1 54 173 175
21 2 2 11 1 56 174 55
22 2 2 11 1 55 174 173
23 2 2 11 1 178 56 57
24 2 2 11 1 56 177 174
25 2 2 11 1 56 178 177
26 2 2 11 1 176 58 59
27 2 2 11 1 178 58 176
28 2 2 11 1 59 60 184
29 2 2 11 1 176 59 184
30 2 2 11 1 60 61 189
31 2 2 11 1 188 184 60
32 2 2 11 1 188 60 189
33 2 2 11 1 61 62 202
34 2 2 11 1 202 189 61
35 2 2 11 1 62 63 206
36 2 2 11 1 62 206 202
37 2 2 11 1 203 206 63
38 2 2 11 1 203 64 65
39 2 2 11 1 169 65 66
40 2 2 11 1 204 65 169
41 2 2 11 1 203 65 204
42 2 2 11 1 66 67 170
43 2 2 11 1 169 66 170
44 2 2 11 1 199 67 68
45 2 2 11 1 170 67 199
46 2 2 11 1 200 199 68
47 2 2 11 1 169 170 171
48 2 2 11 1 169 171 204
49 2 2 11 1 179 171 170
50 2 2 11 1 199 179 170
51 2 2 11 1 197 171 179
52 2 2 11 1 171 197 205
53 2 2 11 1 205 204 171
54 2 2 11 1 172 173 174
55 2 2 11 1 172 175 173
56 2 2 11 1 172 174 182
57 2 2 11 1 172 180 175
58 2 2 11 1 180 172 181
59 2 2 11 1 172 182 181
60 2 2 11 1 182 174 177
61 2 2 11 1 176 177 178
62 2 2 11 1 176 183 177
63 2 2 11 1 183 176 184
64 2 2 11 1 177 183 182
65 2 2 11 1 179 196 197
66 2 2 11 1 179 198 196
67 2 2 11 1 179 199 198
68 2 2 11 1 185 180 181
69 2 2 11 1 181 182 186
70 2 2 11 1 185 181 190
71 2 2 11 1 181 186 190
72 2 2 11 1 186 182 183
73 2 2 11 1 186 183 184
74 2 2 11 1 186 184 188
75 2 2 11 1 193 185 190
76 2 2 11 1 188 187 186
77 2 2 11 1 190 186 187
78 2 2 11 1 187 188 189
79 2 2 11 1 195 187 189
80 2 2 11 1 195 190 187
81 2 2 11 1 194 195 189
82 2 2 11 1 202 194 189
83 2 2 11 1 190 191 193
84 2 2 11 1 191 190 195
85 2 2 11 1 191 192 193
86 2 2 11 1 192 191 198
87 2 2 11 1 196 191 195
88 2 2 11 1 198 191 196
89 2 2 11 1 201 192 198
90 2 2 11 1 194 197 195
91 2 2 11 1 205 197 194
92 2 2 11 1 194 202 205
93 2 2 11 1 195 197 196
94 2 2 11 1 201 198 199
95 2 2 11 1 199 200 201
96 2 2 11 1 202 206 205
97 2 2 11 1 206 203 204
98 2 2 11 1 204 205 206
99 2 2 11 2 238 5 69
100 2 2 11 2 88 5 238
101 2 2 11 2 73 6 213
102 2 2 11 2 213 6 74
103 2 2 11 2 77 7 216
104 2 2 11 2 216 7 78
105 2 2 11 2 241 83 8
106 2 2 11 2 84 241 8
107 2 2 11 2 239 69 70
108 2 2 11 2 238 69 239
109 2 2 11 2 230 70 71
110 2 2 11 2 70 230 239
111 2 2 11 2 223 71 72
112 2 2 11 2 71 223 231
113 2 2 11 2 230 71 231
114 2 2 11 2 72 73 218
115 2 2 11 2 223 72 218
116 2 2 11 2 218 73 213
117 2 2 11 2 74 75 211
118 2 2 11 2 74 211 213
119 2 2 11 2 76 212 75
120 2 2 11 2 75 212 211
121 2 2 11 2 216 76 77
122 2 2 11 2 76 215 212
123 2 2 11 2 76 216 215
124 2 2 11 2 214 78 79
125 2 2 11 2 216 78 214
126 2 2 11 2 79 80 222
127 2 2 11 2 214 79 222
128 2 2 11 2 80 81 227
129 2 2 11 2 226 222 80
130 2 2 11 2 226 80 227
131 2 2 11 2 81 82 240
132 2 2 11 2 240 227 81
133 2 2 11 2 82 83 244
134 2 2 11 2 82 244 240
135 2 2 11 2 241 244 83
136 2 2 11 2 241 84 85
137 2 2 11 2 207 85 86
138 2 2 11 2 242 85 207
139 2 2 11 2 241 85 242
140 2 2 11 2 86 87 208
141 2 2 11 2 207 86 208
142 2 2 11 2 237 87 88
143 2 2 11 2 208 87 237
144 2 2 11 2 238 237 88
145 2 2 11 2 207 208 209
146 2 2 11 2 207 209 242
147 2 2 11 2 217 209 208
148 2 2 11 2 237 217 208
149 2 2 11 2 235 209 217
150 2 2 11 2 209 235 243
151 2 2 11 2 243 242 209
152 2 2 11 2 210 211 212
153 2 2 11 2 210 213 211
154 2 2 11 2 210 212 220
155 2 2 11 2 210 218 213
156 2 2 11 2 218 210 219
157 2 2 11 2 210 220 219
158 2 2 11 2 220 212 215
159 2 2 11 2 214 215 216
160 2 2 11 2 214 221 215
161 2 2 11 2 221 214 222
162 2 2 11 2 215 221 220
163 2 2 11 2 217 234 235
164 2 2 11 2 217 236 234
165 2 2 11 2 217 237 236
166 2 2 11 2 223 218 219
167 2 2 11 2 219 220 224
168 2 2 11 2 223 219 228
169 2 2 11 2 219 224 228
170 2 2 11 2 224 220 221
171 2 2 11 2 224 221 222
172 2 2 11 2 224 222 226
173 2 2 11 2 231 223 228
174 2 2 11 2 226 225 224
175 2 2 11 2 228 224 225
176 2 2 11 2 225 226 227
177 2 2 11 2 233 225 227
178 2 2 11 2 233 228 225
179 2 2 11 2 232 233 227
180 2 2 11 2 240 232 227
181 2 2 11 2 228 229 231
182 2 2 11 2 229 228 233
183 2 2 11 2 229 230 231
184 2 2 11 2 230 229 236
185 2 2 11 2 234 229 233
186 2 2 11 2 236 229 234
187 2 2 11 2 239 230 236
188 2 2 11 2 232 235 233
189 2 2 11 2 243 235 232
190 2 2 11 2 232 240 243
191 2 2 11 2 233 235 234
192 2 2 11 2 239 236 237
193 2 2 11 2 237 238 239
194 2 2 11 2 240 244 243
195 2 2 11 2 244 241 242
196 2 2 11 2 242 243 244
197 2 2 11 3 266 1 49
198 2 2 11 3 89 1 266
199 2 2 11 3 53 2 258
200 2 2 11 3 258 2 92
201 2 2 11 3 69 5 261
202 2 2 11 3 261 5 91
203 2 2 11 3 250 6 73
204 2 2 11 3 94 6 250
205 2 2 11 3 49 50 256
206 2 2 11 3 49 256 263
207 2 2 11 3 49 263 266
208 2 2 11 3 50 51 248
209 2 2 11 3 50 248 256
210 2 2 11 3 51 52 264
211 2 2 11 3 51 264 248
212 2 2 11 3 257 52 53
213 2 2 11 3 257 264 52
214 2 2 11 3 258 257 53
215 2 2 11 3 252 70 69
216 2 2 11 3 260 252 69
217 2 2 11 3 261 260 69
218 2 2 11 3 245 71 70
219 2 2 11 3 252 245 70
220 2 2 11 3 262 72 71
221 2 2 11 3 245 262 71
222 2 2 11 3 73 72 251
223 2 2 11 3 72 262 251
224 2 2 11 3 73 251 250
225 2 2 11 3 263 90 89
226 2 2 11 3 266 263 89
227 2 2 11 3 91 90 260
228 2 2 11 3 90 265 260
229 2 2 11 3 263 265 90
230 2 2 11 3 91 260 261
231 2 2 11 3 92 93 259
232 2 2 11 3 92 259 258
233 2 2 11 3 249 93 94
234 2 2 11 3 249 254 93
235 2 2 11 3 93 254 259
236 2 2 11 3 250 249 94
237 2 2 11 3 245 246 247
238 2 2 11 3 245 252 246
239 2 2 11 3 262 245 247
240 2 2 11 3 247 246 248
241 2 2 11 3 246 256 248
242 2 2 11 3 252 253 246
243 2 2 11 3 246 253 256
244 2 2 11 3 247 248 264
245 2 2 11 3 247 255 262
246 2 2 11 3 264 255 247
247 2 2 11 3 249 250 251
248 2 2 11 3 251 254 249
249 2 2 11 3 254 251 255
250 2 2 11 3 251 262 255
251 2 2 11 3 252 260 253
252 2 2 11 3 253 263 256
253 2 2 11 3 253 260 265
254 2 2 11 3 265 263 253
255 2 2 11 3 255 257 254
256 2 2 11 3 259 254 257
257 2 2 11 3 255 264 257
258 2 2 11 3 257 258 259
259 2 2 11 4 268 2 54
260 2 2 11 4 92 2 268
261 2 2 11 4 57 3 284
262 2 2 11 4 284 3 95
263 2 2 11 4 74 6 281
264 2 2 11 4 281 6 94
265 2 2 11 4 285 7 77
266 2 2 11 4 97 7 285
267 2 2 11 4 54 55 268
268 2 2 11 4 55 56 269
269 2 2 11 4 55 269 268
270 2 2 11 4 284 56 57
271 2 2 11 4 278 269 56
272 2 2 11 4 283 278 56
273 2 2 11 4 284 283 56
274 2 2 11 4 281 75 74
275 2 2 11 4 277 76 75
276 2 2 11 4 280 277 75
277 2 2 11 4 281 280 75
278 2 2 11 4 77 76 285
279 2 2 11 4 76 277 276
280 2 2 11 4 76 276 282
281 2 2 11 4 76 282 285
282 2 2 11 4 93 92 270
283 2 2 11 4 270 92 268
284 2 2 11 4 279 94 93
285 2 2 11 4 270 271 93
286 2 2 11 4 93 271 279
287 2 2 11 4 281 94 279
288 2 2 11 4 273 95 96
289 2 2 11 4 284 95 273
290 2 2 11 4 96 97 274
291 2 2 11 4 274 273 96
292 2 2 11 4 274 97 285
293 2 2 11 4 267 268 269
294 2 2 11 4 267 270 268
295 2 2 11 4 269 275 267
296 2 2 11 4 267 271 270
297 2 2 11 4 275 271 267
298 2 2 11 4 269 278 275
299 2 2 11 4 280 271 275
300 2 2 11 4 279 271 280
301 2 2 11 4 272 273 274
302 2 2 11 4 272 283 273
303 2 2 11 4 274 282 272
304 2 2 11 4 275 272 276
305 2 2 11 4 278 272 275
306 2 2 11 4 276 272 282
307 2 2 11 4 283 272 278
308 2 2 11 4 273 283 284
309 2 2 11 4 285 282 274
310 2 2 11 4 275 276 277
311 2 2 11 4 275 277 280
312 2 2 11 4 279 280 281
313 2 2 11 5 288 3 58
314 2 2 11 5 95 3 288
315 2 2 11 5 63 4 298
316 2 2 11 5 298 4 98
317 2 2 11 5 78 7 290
318 2 2 11 5 290 7 97
319 2 2 11 5 296 8 83
320 2 2 11 5 100 8 296
321 2 2 11 5 58 59 286
322 2 2 11 5 288 58 286
323 2 2 11 5 59 60 302
324 2 2 11 5 59 302 286
325 2 2 11 5 60 61 305
326 2 2 11 5 302 60 305
327 2 2 11 5 61 62 303
328 2 2 11 5 305 61 303
329 2 2 11 5 299 62 63
330 2 2 11 5 299 303 62
331 2 2 11 5 299 63 298
332 2 2 11 5 291 79 78
333 2 2 11 5 291 78 290
334 2 2 11 5 292 80 79
335 2 2 11 5 291 292 79
336 2 2 11 5 307 81 80
337 2 2 11 5 292 307 80
338 2 2 11 5 300 82 81
339 2 2 11 5 300 81 307
340 2 2 11 5 83 82 294
341 2 2 11 5 82 300 294
342 2 2 11 5 296 83 294
343 2 2 11 5 288 96 95
344 2 2 11 5 97 96 290
345 2 2 11 5 288 287 96
346 2 2 11 5 96 287 290
347 2 2 11 5 98 99 298
348 2 2 11 5 296 99 100
349 2 2 11 5 296 295 99
350 2 2 11 5 99 295 298
351 2 2 11 5 286 287 288
352 2 2 11 5 287 286 289
353 2 2 11 5 293 289 286
354 2 2 11 5 293 286 302
355 2 2 11 5 289 291 287
356 2 2 11 5 290 287 291
357 2 2 11 5 291 289 293
358 2 2 11 5 292 291 293
359 2 2 11 5 293 304 292
360 2 2 11 5 304 307 292
361 2 2 11 5 293 302 306
362 2 2 11 5 306 304 293
363 2 2 11 5 294 295 296
364 2 2 11 5 295 294 297
365 2 2 11 5 294 300 297
366 2 2 11 5 297 299 295
367 2 2 11 5 298 295 299
368 2 2 11 5 297 303 299
369 2 2 11 5 301 297 300
370 2 2 11 5 303 297 301
371 2 2 11 5 300 304 301
372 2 2 11 5 304 300 307
373 2 2 11 5 301 304 303
374 2 2 11 5 302 305 306
375 2 2 11 5 305 303 304
376 2 2 11 5 304 306 305
377 2 2 11 6 68 1 324
378 2 2 11 6 324 1 89
379 2 2 11 6 311 4 64
380 2 2 11 6 98 4 311
381 2 2 11 6 313 5 88
382 2 2 11 6 91 5 313
383 2 2 11 6 84 8 326
384 2 2 11 6 326 8 100
385 2 2 11 6 310 64 65
386 2 2 11 6 311 64 310
387 2 2 11 6 65 66 318
388 2 2 11 6 65 318 310
389 2 2 11 6 66 67 319
390 2 2 11 6 318 66 319
391 2 2 11 6 67 68 323
392 2 2 11 6 323 319 67
393 2 2 11 6 323 68 324
394 2 2 11 6 85 84 325
395 2 2 11 6 325 84 326
396 2 2 11 6 321 86 85
397 2 2 11 6 325 321 85
398 2 2 11 6 316 87 86
399 2 2 11 6 316 86 321
400 2 2 11 6 314 88 87
401 2 2 11 6 87 316 314
402 2 2 11 6 313 88 314
403 2 2 11 6 89 90 324
404 2 2 11 6 312 90 91
405 2 2 11 6 312 315 90
406 2 2 11 6 90 315 324
407 2 2 11 6 313 312 91
408 2 2 11 6 309 99 98
409 2 2 11 6 311 309 98
410 2 2 11 6 100 99 326
411 2 2 11 6 309 308 99
412 2 2 11 6 99 308 326
413 2 2 11 6 308 309 310
414 2 2 11 6 308 310 322
415 2 2 11 6 322 325 308
416 2 2 11 6 308 325 326
417 2 2 11 6 309 311 310
418 2 2 11 6 310 318 322
419 2 2 11 6 312 313 314
420 2 2 11 6 312 314 315
421 2 2 11 6 317 315 314
422 2 2 11 6 316 317 314
423 2 2 11 6 323 315 317
424 2 2 11 6 315 323 324
425 2 2 11 6 320 317 316
426 2 2 11 6 320 316 321
427 2 2 11 6 319 317 320
428 2 2 11 6 323 317 319
429 2 2 11 6 318 319 320
430 2 2 11 6 318 320 322
431 2 2 11 6 322 320 321
432 2 2 11 6 322 321 325
433 2 2 14 7 327 328 329
434 2 2 14 7 328 103 329
435 2 2 14 7 327 330 331
436 2 2 14 7 327 329 330
437 2 2 14 7 327 332 333
438 2 2 14 7 331 332 327
439 2 2 14 7 107 331 334
440 2 2 14 7 331 107 332
441 2 2 14 7 108 332 107
442 2 2 14 7 104 329 103
443 2 2 14 7 331 106 334
444 2 2 14 7 327 102 328
445 2 2 14 7 331 330 106
446 2 2 14 7 105 106 330
447 2 2 14 7 327 333 102
448 2 2 14 7 101 102 333
449 2 2 14 7 330 11 105
450 2 2 14 7 330 329 104
451 2 2 14 7 104 11 330
452 2 2 14 7 108 9 333
453 2 2 14 7 333 332 108
454 2 2 14 7 333 9 101
455 2 2 14 7 106 12 334
456 2 2 14 7 334 12 107
457 2 2 14 7 328 10 103
458 2 2 14 7 102 10 328
459 2 2 14 8 14 109 13
460 2 2 14 8 109 112 13
461 2 2 14 8 16 111 15
462 2 2 14 8 110 112 109
463 2 2 14 8 111 110 15
464 2 2 14 8 111 112 110
465 2 2 14 9 18 113 17
466 2 2 14 9 113 116 17
467 2 2 14 9 20 115 19
468 2 2 14 9 114 116 113
469 2 2 14 9 115 114 19
470 2 2 14 9 115 116 114
471 2 2 14 10 335 24 120
472 2 2 14 10 119 24 335
473 2 2 14 10 335 23 119
474 2 2 14 10 118 23 335
475 2 2 14 10 120 21 335
476 2 2 14 10 335 21 117
477 2 2 14 10 335 22 118
478 2 2 14 10 117 22 335
479 2 2 14 11 336 125 337
480 2 2 14 11 336 28 125
481 2 2 14 11 124 28 336
482 2 2 14 11 337 126 338
483 2 2 14 11 337 123 336
484 2 2 14 11 338 122 337
485 2 2 14 11 126 25 338
486 2 2 14 11 338 25 121
487 2 2 14 11 121 26 338
488 2 2 14 11 123 27 336
489 2 2 14 11 337 125 126
490 2 2 14 11 337 122 123
491 2 2 14 11 336 27 124
492 2 2 14 11 338 26 122
493 2 2 14 12 339 131 340
494 2 2 14 12 339 32 131
495 2 2 14 12 130 32 339
496 2 2 14 12 340 132 341
497 2 2 14 12 340 129 339
498 2 2 14 12 341 128 340
499 2 2 14 12 132 29 341
500 2 2 14 12 341 29 127
501 2 2 14 12 127 30 341
502 2 2 14 12 129 31 339
503 2 2 14 12 340 131 132
504 2 2 14 12 340 128 129
505 2 2 14 12 339 31 130
506 2 2 14 12 341 30 128
507 2 2 14 13 342 137 343
508 2 2 14 13 342 36 137
509 2 2 14 13 136 36 342
510 2 2 14 13 343 138 344
511 2 2 14 13 343 135 342
512 2 2 14 13 344 134 343
513 2 2 14 13 138 33 344
514 2 2 14 13 344 33 133
515 2 2 14 13 343 134 135
516 2 2 14 13 343 137 138
517 2 2 14 13 133 34 344
518 2 2 14 13 135 35 342
519 2 2 14 13 342 35 136
520 2 2 14 13 344 34 134
521 2 2 14 14 345 143 346
522 2 2 14 14 345 40 143
523 2 2 14 14 142 40 345
524 2 2 14 14 346 144 347
525 2 2 14 14 347 140 346
526 2 2 14 14 346 141 345
527 2 2 14 14 144 37 347
528 2 2 14 14 347 37 139
529 2 2 14 14 346 140 141
530 2 2 14 14 346 143 144
531 2 2 14 14 139 38 347
532 2 2 14 14 141 39 345
533 2 2 14 14 345 39 142
534 2 2 14 14 347 38 140
535 2 2 14 15 348 149 349
536 2 2 14 15 348 44 149
537 2 2 14 15 148 44 348
538 2 2 14 15 349 150 350
539 2 2 14 15 349 147 348
540 2 2 14 15 350 146 349
541 2 2 14 15 150 41 350
542 2 2 14 15 350 41 145
543 2 2 14 15 145 42 350
544 2 2 14 15 147 43 348
545 2 2 14 15 349 149 150
546 2 2 14 15 349 146 147
547 2 2 14 15 348 43 148
548 2 2 14 15 350 42 146
549 2 2 13 16 351 352 353
550 2 2 13 16 351 354 352
551 2 2 13 16 153 355 356
552 2 2 13 16 153 357 355
553 2 2 13 16 153 356 152
554 2 2 13 16 358 155 359
555 2 2 13 16 360 361 362
556 2 2 13 16 154 358 357
557 2 2 13 16 357 46 154
558 2 2 13 16 363 362 361
559 2 2 13 16 153 46 357
560 2 2 13 16 360 356 355
561 2 2 13 16 364 365 359
562 2 2 13 16 364 361 365
563 2 2 13 16 366 367 368
564 2 2 13 16 366 156 367
565 2 2 13 16 369 370 352
566 2 2 13 16 370 364 352
567 2 2 13 16 365 360 355
568 2 2 13 16 371 372 373
569 2 2 13 16 361 360 365
570 2 2 13 16 373 351 371
571 2 2 13 16 351 353 374
572 2 2 13 16 372 164 373
573 2 2 13 16 365 355 358
574 2 2 13 16 375 167 168
575 2 2 13 16 365 358 359
576 2 2 13 16 357 358 355
577 2 2 13 16 369 363 370
578 2 2 13 16 361 370 363
579 2 2 13 16 369 166 363
580 2 2 13 16 154 155 358
581 2 2 13 16 168 45 375
582 2 2 13 16 372 371 162
583 2 2 13 16 161 162 371
584 2 2 13 16 151 376 375
585 2 2 13 16 367 377 378
586 2 2 13 16 379 378 377
587 2 2 13 16 374 371 351
588 2 2 13 16 374 161 371
589 2 2 13 16 163 372 48
590 2 2 13 16 372 162 48
591 2 2 13 16 377 157 158
592 2 2 13 16 367 157 377
593 2 2 13 16 375 45 151
594 2 2 13 16 373 164 165
595 2 2 13 16 375 362 167
596 2 2 13 16 353 379 374
597 2 2 13 16 376 362 375
598 2 2 13 16 353 378 379
599 2 2 13 16 379 160 374
600 2 2 13 16 377 159 379
601 2 2 13 16 376 151 152
602 2 2 13 16 377 47 159
603 2 2 13 16 352 368 353
604 2 2 13 16 158 47 377
605 2 2 13 16 370 361 364
606 2 2 13 16 155 156 359
607 2 2 13 16 379 159 160
608 2 2 13 16 364 359 366
609 2 2 13 16 352 364 368
610 2 2 13 16 360 362 376
611 2 2 13 16 376 356 360
612 2 2 13 16 366 368 364
613 2 2 13 16 366 359 156
614 2 2 13 16 165 369 354
615 2 2 13 16 363 166 167
616 2 2 13 16 353 368 378
617 2 2 13 16 165 354 373
618 2 2 13 16 378 368 367
619 2 2 13 16 156 157 367
620 2 2 13 16 354 369 352
621 2 2 13 16 369 165 166
622 2 2 13 16 362 363 167
623 2 2 13 16 373 354 351
624 2 2 13 16 372 163 164
625 2 2 13 16 160 161 374
626 2 2 13 16 356 376 152
627 4 2 1 1 383 395 381 405
628 4 2 1 1 383 391 381 395
629 4 2 1 1 392 395 383 405
630 4 2 1 1 208 217 237 384
631 4 2 1 1 388 391 381 396
632 4 2 1 1 208 237 316 384
633 4 2 1 1 381 388 387 391
634 4 2 1 1 383 392 391 395
635 4 2 1 1 217 384 208 401
636 4 2 1 1 180 385 258 413
637 4 2 1 1 208 384 316 401
638 4 2 1 1 182 183 397 400
639 4 2 1 1 237 236 239 402
640 4 2 1 1 191 382 190 405
641 4 2 1 1 191 394 382 405
642 4 2 1 1 305 306 383 403
643 4 2 1 1 180 258 175 413
644 4 2 1 1 233 232 391 410
645 4 2 1 1 237 384 236 402
646 4 2 1 1 319 386 170 406
647 4 2 1 1 316 237 314 384
648 4 2 1 1 259 258 385 413
649 4 2 1 1 229 382 228 404
650 4 2 1 1 228 382 393 404
651 4 2 1 1 289 398 389 403
652 4 2 1 1 397 400 183 403
653 4 2 1 1 382 395 392 405
654 4 2 1 1 297 391 388 396
655 4 2 1 1 382 394 191 409
656 4 2 1 1 228 392 382 395
657 4 2 1 1 237 314 384 402
658 4 2 1 1 385 393 380 397
659 4 2 1 1 380 393 392 397
660 4 2 1 1 228 382 229 395
661 4 2 1 1 190 382 191 409
662 4 2 1 1 387 388 297 391
663 4 2 1 1 384 317 406 408
664 4 2 1 1 267 390 385 411
665 4 2 1 1 392 393 380 407
666 4 2 1 1 267 385 275 413
667 4 2 1 1 170 386 319 408
668 4 2 1 1 289 389 399 403
669 4 2 1 1 317 401 384 406
670 4 2 1 1 233 391 395 410
671 4 2 1 1 228 393 231 404
672 4 2 1 1 390 380 393 407
673 4 2 1 1 317 320 401 406
674 4 2 1 1 229 236 234 395
675 4 2 1 1 229 395 382 404
676 4 2 1 1 170 386 171 406
677 4 2 1 1 233 391 392 395
678 4 2 1 1 381 395 386 405
679 4 2 1 1 229 228 231 404
680 4 2 1 1 384 406 386 408
681 4 2 1 1 275 385 267 390
682 4 2 1 1 217 236 237 384
683 4 2 1 1 219 393 392 407
684 4 2 1 1 247 404 393 409
685 4 2 1 1 382 386 395 405
686 4 2 1 1 186 182 183 397
687 4 2 1 1 389 398 380 403
688 4 2 1 1 307 226 391 399
689 4 2 1 1 382 397 190 405
690 4 2 1 1 275 390 267 411
691 4 2 1 1 226 392 391 399
692 4 2 1 1 253 402 394 408
693 4 2 1 1 257 258 180 385
694 4 2 1 1 385 412 275 413
695 4 2 1 1 306 305 302 403
696 4 2 1 1 301 391 297 396
697 4 2 1 1 262 393 247 404
698 4 2 1 1 319 386 406 408
699 4 2 1 1 305 383 188 403
700 4 2 1 1 169 170 171 406
701 4 2 1 1 196 386 191 405
702 4 2 1 1 210 390 211 411
703 4 2 1 1 385 390 380 393
704 4 2 1 1 239 252 402 404
705 4 2 1 1 389 380 399 403
706 4 2 1 1 382 386 384 395
707 4 2 1 1 183 400 398 403
708 4 2 1 1 179 171 170 386
709 4 2 1 1 231 393 262 404
710 4 2 1 1 229 236 395 404
711 4 2 1 1 253 394 402 404
712 4 2 1 1 382 392 228 393
713 4 2 1 1 384 395 236 404
714 4 2 1 1 237 239 238 402
715 4 2 1 1 259 258 257 385
716 4 2 1 1 193 191 394 409
717 4 2 1 1 306 399 383 403
718 4 2 1 1 220 390 219 407
719 4 2 1 1 319 406 317 408
720 4 2 1 1 390 393 219 407
721 4 2 1 1 385 390 275 412
722 4 2 1 1 314 317 384 402
723 4 2 1 1 169 319 170 406
724 4 2 1 1 210 393 390 411
725 4 2 1 1 306 304 305 383
726 4 2 1 1 181 397 385 400
727 4 2 1 1 273 272 389 398
728 4 2 1 1 316 314 317 384
729 4 2 1 1 190 397 382 409
730 4 2 1 1 181 385 172 400
731 4 2 1 1 214 221 222 407
732 4 2 1 1 298 309 311 388
733 4 2 1 1 179 386 170 408
734 4 2 1 1 213 210 211 411
735 4 2 1 1 381 386 401 406
736 4 2 1 1 240 387 300 410
737 4 2 1 1 305 383 304 396
738 4 2 1 1 193 190 191 409
739 4 2 1 1 218 393 210 411
740 4 2 1 1 186 397 183 403
741 4 2 1 1 310 311 309 388
742 4 2 1 1 263 201 200 408
743 4 2 1 1 382 392 393 397
744 4 2 1 1 393 404 382 409
745 4 2 1 1 274 273 272 389
746 4 2 1 1 181 180 172 385
747 4 2 1 1 394 404 247 409
748 4 2 1 1 275 267 271 411
749 4 2 1 1 381 386 384 401
750 4 2 1 1 317 316 384 401
751 4 2 1 1 215 389 276 407
752 4 2 1 1 242 243 401 410
753 4 2 1 1 389 276 407 412
754 4 2 1 1 306 304 383 399
755 4 2 1 1 263 402 253 408
756 4 2 1 1 383 381 396 405
757 4 2 1 1 314 238 313 402
758 4 2 1 1 212 215 276 407
759 4 2 1 1 385 393 255 411
760 4 2 1 1 219 392 224 407
761 4 2 1 1 191 386 196 394
762 4 2 1 1 239 260 238 402
763 4 2 1 1 393 397 385 409
764 4 2 1 1 322 388 387 406
765 4 2 1 1 380 392 383 397
766 4 2 1 1 287 273 389 398
767 4 2 1 1 247 248 394 409
768 4 2 1 1 384 386 382 394
769 4 2 1 1 187 383 397 403
770 4 2 1 1 380 400 397 403
771 4 2 1 1 189 383 305 396
772 4 2 1 1 227 233 232 391
773 4 2 1 1 304 383 391 396
774 4 2 1 1 391 392 383 399
775 4 2 1 1 385 397 181 409
776 4 2 1 1 180 172 385 413
777 4 2 1 1 242 321 387 401
778 4 2 1 1 267 411 385 413
779 4 2 1 1 307 292 226 399
780 4 2 1 1 191 386 394 405
781 4 2 1 1 242 207 321 401
782 4 2 1 1 385 397 380 400
783 4 2 1 1 223 262 231 393
784 4 2 1 1 256 253 394 408
785 4 2 1 1 204 169 171 406
786 4 2 1 1 287 273 274 389
787 4 2 1 1 246 247 394 404
788 4 2 1 1 180 385 181 409
789 4 2 1 1 392 399 224 407
790 4 2 1 1 204 318 169 406
791 4 2 1 1 222 399 389 407
792 4 2 1 1 381 391 387 410
793 4 2 1 1 242 243 209 401
794 4 2 1 1 387 391 300 410
795 4 2 1 1 204 406 171 414
796 4 2 1 1 253 246 394 404
797 4 2 1 1 308 387 322 388
798 4 2 1 1 314 237 238 402
799 4 2 1 1 384 401 386 406
800 4 2 1 1 295 308 309 388
801 4 2 1 1 233 392 228 395
802 4 2 1 1 246 247 248 394
803 4 2 1 1 381 395 391 410
804 4 2 1 1 259 270 258 413
805 4 2 1 1 400 412 385 413
806 4 2 1 1 172 400 385 413
807 4 2 1 1 295 387 308 388
808 4 2 1 1 380 390 385 412
809 4 2 1 1 319 320 317 406
810 4 2 1 1 383 392 380 399
811 4 2 1 1 304 391 301 396
812 4 2 1 1 298 311 203 388
813 4 2 1 1 211 390 280 411
814 4 2 1 1 322 387 401 406
815 4 2 1 1 204 388 310 406
816 4 2 1 1 381 391 383 396
817 4 2 1 1 242 321 325 387
818 4 2 1 1 305 188 302 403
819 4 2 1 1 380 385 400 412
820 4 2 1 1 255 247 393 409
821 4 2 1 1 182 397 181 400
822 4 2 1 1 242 401 387 410
823 4 2 1 1 389 398 272 412
824 4 2 1 1 382 394 386 405
825 4 2 1 1 214 222 389 407
826 4 2 1 1 384 386 381 395
827 4 2 1 1 304 307 391 399
828 4 2 1 1 194 405 396 414
829 4 2 1 1 387 388 381 406
830 4 2 1 1 227 391 226 392
831 4 2 1 1 217 395 384 401
832 4 2 1 1 382 397 393 409
833 4 2 1 1 210 213 218 411
834 4 2 1 1 220 219 224 407
835 4 2 1 1 248 193 394 409
836 4 2 1 1 203 311 310 388
837 4 2 1 1 204 388 406 414
838 4 2 1 1 209 401 243 410
839 4 2 1 1 257 385 180 409
840 4 2 1 1 309 298 295 388
841 4 2 1 1 256 263 253 408
842 4 2 1 1 256 201 263 408
843 4 2 1 1 262 255 247 393
844 4 2 1 1 261 313 238 260
845 4 2 1 1 230 239 236 404
846 4 2 1 1 218 251 393 411
847 4 2 1 1 255 393 385 409
848 4 2 1 1 204 310 318 406
849 4 2 1 1 250 218 213 411
850 4 2 1 1 299 388 202 396
851 4 2 1 1 381 401 387 406
852 4 2 1 1 307 226 227 391
853 4 2 1 1 380 397 383 403
854 4 2 1 1 220 210 219 390
855 4 2 1 1 305 189 188 383
856 4 2 1 1 319 169 318 406
857 4 2 1 1 315 402 263 408
858 4 2 1 1 304 391 383 399
859 4 2 1 1 282 276 215 389
860 4 2 1 1 187 188 383 403
861 4 2 1 1 240 300 391 410
862 4 2 1 1 255 393 251 411
863 4 2 1 1 194 189 396 405
864 4 2 1 1 238 260 313 402
865 4 2 1 1 254 385 255 411
866 4 2 1 1 270 268 258 413
867 4 2 1 1 380 383 399 403
868 4 2 1 1 384 402 394 404
869 4 2 1 1 256 394 201 408
870 4 2 1 1 209 207 242 401
871 4 2 1 1 240 244 294 387
872 4 2 1 1 240 294 300 387
873 4 2 1 1 398 400 380 403
874 4 2 1 1 289 287 389 398
875 4 2 1 1 240 244 387 410
876 4 2 1 1 187 397 383 405
877 4 2 1 1 196 386 198 394
878 4 2 1 1 309 308 310 388
879 4 2 1 1 219 390 210 393
880 4 2 1 1 200 324 263 408
881 4 2 1 1 182 181 172 400
882 4 2 1 1 300 387 297 391
883 4 2 1 1 382 404 394 409
884 4 2 1 1 322 387 321 401
885 4 2 1 1 219 228 392 393
886 4 2 1 1 225 227 226 392
887 4 2 1 1 317 384 402 408
888 4 2 1 1 291 389 222 399
889 4 2 1 1 265 263 315 402
890 4 2 1 1 218 250 251 411
891 4 2 1 1 239 252 260 402
892 4 2 1 1 196 179 198 386
893 4 2 1 1 253 402 252 404
894 4 2 1 1 183 177 398 400
895 4 2 1 1 214 222 291 389
896 4 2 1 1 232 240 391 410
897 4 2 1 1 297 387 295 388
898 4 2 1 1 304 301 303 396
899 4 2 1 1 304 292 307 399
900 4 2 1 1 177 278 398 400
901 4 2 1 1 233 228 229 395
902 4 2 1 1 384 395 381 401
903 4 2 1 1 255 385 257 409
904 4 2 1 1 213 211 281 411
905 4 2 1 1 231 262 245 404
906 4 2 1 1 211 212 277 390
907 4 2 1 1 206 299 203 388
908 4 2 1 1 289 286 398 403
909 4 2 1 1 325 321 322 387
910 4 2 1 1 198 386 179 408
911 4 2 1 1 171 406 386 414
912 4 2 1 1 217 235 395 401
913 4 2 1 1 315 263 324 408
914 4 2 1 1 224 392 226 399
915 4 2 1 1 310 308 322 388
916 4 2 1 1 187 397 186 403
917 4 2 1 1 265 253 263 402
918 4 2 1 1 382 395 384 404
919 4 2 1 1 180 175 172 413
920 4 2 1 1 208 316 207 401
921 4 2 1 1 281 211 280 411
922 4 2 1 1 217 209 235 401
923 4 2 1 1 396 405 381 414
924 4 2 1 1 254 257 255 385
925 4 2 1 1 380 398 389 412
926 4 2 1 1 204 171 205 414
927 4 2 1 1 317 320 316 401
928 4 2 1 1 206 202 299 388
929 4 2 1 1 257 254 259 385
930 4 2 1 1 183 398 176 403
931 4 2 1 1 301 297 303 396
932 4 2 1 1 183 182 177 400
933 4 2 1 1 211 277 280 390
934 4 2 1 1 240 243 244 410
935 4 2 1 1 200 323 324 408
936 4 2 1 1 310 388 322 406
937 4 2 1 1 326 308 296 387
938 4 2 1 1 299 202 303 396
939 4 2 1 1 324 266 200 263
940 4 2 1 1 177 174 278 400
941 4 2 1 1 198 394 386 408
942 4 2 1 1 300 307 240 391
943 4 2 1 1 177 278 283 398
944 4 2 1 1 291 289 389 399
945 4 2 1 1 230 252 239 404
946 4 2 1 1 256 253 246 394
947 4 2 1 1 190 181 397 409
948 4 2 1 1 176 398 286 403
949 4 2 1 1 298 203 299 388
950 4 2 1 1 323 200 199 408
951 4 2 1 1 294 244 241 387
952 4 2 1 1 394 402 384 408
953 4 2 1 1 293 399 306 403
954 4 2 1 1 380 399 392 407
955 4 2 1 1 209 217 208 401
956 4 2 1 1 254 259 385 411
957 4 2 1 1 93 270 259 411
958 4 2 1 1 386 381 405 414
959 4 2 1 1 209 235 401 410
960 4 2 1 1 384 394 382 404
961 4 2 1 1 205 396 388 414
962 4 2 1 1 389 399 380 407
963 4 2 1 1 208 316 237 87
964 4 2 1 1 303 305 304 396
965 4 2 1 1 205 202 388 396
966 4 2 1 1 176 178 288 398
967 4 2 1 1 248 264 193 409
968 4 2 1 1 193 192 248 394
969 4 2 1 1 194 195 189 405
970 4 2 1 1 251 255 262 393
971 4 2 1 1 295 296 308 387
972 4 2 1 1 201 199 200 408
973 4 2 1 1 254 255 251 411
974 4 2 1 1 245 262 247 404
975 4 2 1 1 218 219 210 393
976 4 2 1 1 204 205 388 414
977 4 2 1 1 202 61 303 396
978 4 2 1 1 197 171 179 386
979 4 2 1 1 223 218 251 393
980 4 2 1 1 289 399 293 403
981 4 2 1 1 219 228 224 392
982 4 2 1 1 236 229 230 404
983 4 2 1 1 323 170 319 408
984 4 2 1 1 296 241 326 387
985 4 2 1 1 268 175 258 413
986 4 2 1 1 199 170 323 408
987 4 2 1 1 301 300 297 391
988 4 2 1 1 212 390 220 407
989 4 2 1 1 197 196 195 386
990 4 2 1 1 317 402 315 408
991 4 2 1 1 286 176 288 398
992 4 2 1 1 290 216 214 389
993 4 2 1 1 326 241 325 387
994 4 2 1 1 224 226 222 399
995 4 2 1 1 208 207 209 401
996 4 2 1 1 197 386 195 414
997 4 2 1 1 194 195 405 414
998 4 2 1 1 198 201 394 408
999 4 2 1 1 211 210 212 390
1000 4 2 1 1 287 288 273 398
1001 4 2 1 1 322 401 320 406
1002 4 2 1 1 310 204 203 388
1003 4 2 1 1 269 267 275 413
1004 4 2 1 1 251 262 223 393
1005 4 2 1 1 201 200 49 263
1006 4 2 1 1 184 176 286 403
1007 4 2 1 1 191 196 198 394
1008 4 2 1 1 233 225 228 392
1009 4 2 1 1 239 69 238 260
1010 4 2 1 1 209 243 235 410
1011 4 2 1 1 290 214 291 389
1012 4 2 1 1 282 389 272 412
1013 4 2 1 1 260 312 313 402
1014 4 2 1 1 187 186 188 403
1015 4 2 1 1 294 241 296 387
1016 4 2 1 1 294 297 300 387
1017 4 2 1 1 246 253 252 404
1018 4 2 1 1 299 295 298 388
1019 4 2 1 1 85 321 242 207
1020 4 2 1 1 313 312 314 402
1021 4 2 1 1 302 184 286 403
1022 4 2 1 1 395 401 235 410
1023 4 2 1 1 318 169 65 204
1024 4 2 1 1 228 223 231 393
1025 4 2 1 1 307 227 240 391
1026 4 2 1 1 206 205 202 388
1027 4 2 1 1 171 386 197 414
1028 4 2 1 1 215 216 282 389
1029 4 2 1 1 220 212 210 390
1030 4 2 1 1 214 215 221 407
1031 4 2 1 1 195 386 196 405
1032 4 2 1 1 202 189 61 396
1033 4 2 1 1 278 398 400 412
1034 4 2 1 1 325 241 242 387
1035 4 2 1 1 207 316 321 401
1036 4 2 1 1 235 234 217 395
1037 4 2 1 1 282 276 389 412
1038 4 2 1 1 205 194 396 414
1039 4 2 1 1 187 188 189 383
1040 4 2 1 1 387 401 381 410
1041 4 2 1 1 93 271 270 411
1042 4 2 1 1 185 180 181 409
1043 4 2 1 1 326 325 308 387
1044 4 2 1 1 189 195 187 405
1045 4 2 1 1 184 302 188 403
1046 4 2 1 1 315 324 323 408
1047 4 2 1 1 386 405 195 414
1048 4 2 1 1 204 206 203 388
1049 4 2 1 1 266 49 200 263
1050 4 2 1 1 274 272 282 389
1051 4 2 1 1 306 293 304 399
1052 4 2 1 1 316 237 87 314
1053 4 2 1 1 283 272 398 412
1054 4 2 1 1 390 393 385 411
1055 4 2 1 1 261 238 69 260
1056 4 2 1 1 312 265 315 402
1057 4 2 1 1 380 389 407 412
1058 4 2 1 1 199 67 323 170
1059 4 2 1 1 205 194 202 396
1060 4 2 1 1 190 397 187 405
1061 4 2 1 1 86 207 208 316
1062 4 2 1 1 170 66 319 169
1063 4 2 1 1 179 170 199 408
1064 4 2 1 1 299 297 295 388
1065 4 2 1 1 245 230 231 404
1066 4 2 1 1 56 177 174 278
1067 4 2 1 1 275 390 277 412
1068 4 2 1 1 244 242 241 387
1069 4 2 1 1 276 212 76 215
1070 4 2 1 1 58 288 176 178
1071 4 2 1 1 212 277 276 76
1072 4 2 1 1 289 293 286 403
1073 4 2 1 1 273 283 272 398
1074 4 2 1 1 302 293 306 403
1075 4 2 1 1 321 242 325 85
1076 4 2 1 1 247 264 248 409
1077 4 2 1 1 250 279 249 411
1078 4 2 1 1 183 176 184 403
1079 4 2 1 1 67 319 323 170
1080 4 2 1 1 250 281 279 411
1081 4 2 1 1 214 389 215 407
1082 4 2 1 1 249 251 250 411
1083 4 2 1 1 322 308 325 387
1084 4 2 1 1 322 321 320 401
1085 4 2 1 1 195 196 191 405
1086 4 2 1 1 192 201 256 394
1087 4 2 1 1 283 178 177 398
1088 4 2 1 1 232 240 227 391
1089 4 2 1 1 250 213 281 411
1090 4 2 1 1 292 291 222 399
1091 4 2 1 1 288 286 58 176
1092 4 2 1 1 287 274 290 389
1093 4 2 1 1 186 181 182 397
1094 4 2 1 1 380 400 398 412
1095 4 2 1 1 88 238 313 314
1096 4 2 1 1 185 257 180 409
1097 4 2 1 1 197 179 196 386
1098 4 2 1 1 292 222 226 399
1099 4 2 1 1 289 286 287 398
1100 4 2 1 1 206 63 203 299
1101 4 2 1 1 241 244 294 83
1102 4 2 1 1 386 394 384 408
1103 4 2 1 1 190 185 181 409
1104 4 2 1 1 278 400 269 412
1105 4 2 1 1 78 216 214 290
1106 4 2 1 1 273 288 284 398
1107 4 2 1 1 215 76 276 282
1108 4 2 1 1 65 310 318 204
1109 4 2 1 1 177 56 283 278
1110 4 2 1 1 380 407 390 412
1111 4 2 1 1 283 398 278 412
1112 4 2 1 1 287 274 273 96
1113 4 2 1 1 214 291 78 290
1114 4 2 1 1 310 322 318 406
1115 4 2 1 1 198 199 201 408
1116 4 2 1 1 263 49 201 256
1117 4 2 1 1 177 176 183 398
1118 4 2 1 1 59 286 302 184
1119 4 2 1 1 239 69 260 252
1120 4 2 1 1 317 315 323 408
1121 4 2 1 1 230 229 231 404
1122 4 2 1 1 200 68 323 199
1123 4 2 1 1 184 59 286 176
1124 4 2 1 1 174 269 278 400
1125 4 2 1 1 323 319 317 408
1126 4 2 1 1 388 396 381 414
1127 4 2 1 1 252 230 245 404
1128 4 2 1 1 290 274 285 389
1129 4 2 1 1 225 224 228 392
1130 4 2 1 1 93 259 254 411
1131 4 2 1 1 275 277 276 412
1132 4 2 1 1 256 246 248 394
1133 4 2 1 1 174 400 172 413
1134 4 2 1 1 302 286 293 403
1135 4 2 1 1 381 386 406 414
1136 4 2 1 1 234 233 229 395
1137 4 2 1 1 256 248 192 394
1138 4 2 1 1 314 315 317 402
1139 4 2 1 1 294 296 295 387
1140 4 2 1 1 212 220 215 407
1141 4 2 1 1 284 288 178 398
1142 4 2 1 1 218 73 250 213
1143 4 2 1 1 53 180 258 175
1144 4 2 1 1 199 198 179 408
1145 4 2 1 1 300 307 81 240
1146 4 2 1 1 191 190 195 405
1147 4 2 1 1 226 224 225 392
1148 4 2 1 1 186 183 184 403
1149 4 2 1 1 283 278 272 412
1150 4 2 1 1 290 285 216 389
1151 4 2 1 1 302 305 60 188
1152 4 2 1 1 282 272 276 412
1153 4 2 1 1 182 172 174 400
1154 4 2 1 1 278 269 275 412
1155 4 2 1 1 285 282 216 389
1156 4 2 1 1 263 315 90 265
1157 4 2 1 1 238 88 237 314
1158 4 2 1 1 298 203 63 299
1159 4 2 1 1 294 296 241 83
1160 4 2 1 1 381 401 395 410
1161 4 2 1 1 53 180 257 258
1162 4 2 1 1 218 73 251 250
1163 4 2 1 1 193 185 190 409
1164 4 2 1 1 271 93 279 411
1165 4 2 1 1 295 297 294 387
1166 4 2 1 1 207 86 321 316
1167 4 2 1 1 381 406 388 414
1168 4 2 1 1 192 198 201 394
1169 4 2 1 1 259 270 92 258
1170 4 2 1 1 169 66 319 318
1171 4 2 1 1 206 204 205 388
1172 4 2 1 1 223 228 219 393
1173 4 2 1 1 200 68 324 323
1174 4 2 1 1 291 293 289 399
1175 4 2 1 1 185 193 264 409
1176 4 2 1 1 215 214 216 389
1177 4 2 1 1 280 277 275 390
1178 4 2 1 1 270 92 258 268
1179 4 2 1 1 285 274 282 389
1180 4 2 1 1 185 264 257 409
1181 4 2 1 1 273 284 283 398
1182 4 2 1 1 172 175 173 413
1183 4 2 1 1 195 190 187 405
1184 4 2 1 1 286 288 287 398
1185 4 2 1 1 218 223 219 393
1186 4 2 1 1 82 244 294 240
1187 4 2 1 1 174 269 400 413
1188 4 2 1 1 291 289 287 389
1189 4 2 1 1 193 248 51 264
1190 4 2 1 1 231 71 245 262
1191 4 2 1 1 312 90 315 265
1192 4 2 1 1 235 243 232 410
1193 4 2 1 1 292 307 226 80
1194 4 2 1 1 307 81 240 227
1195 4 2 1 1 292 304 293 399
1196 4 2 1 1 279 93 249 411
1197 4 2 1 1 174 172 173 413
1198 4 2 1 1 247 246 245 404
1199 4 2 1 1 284 178 283 398
1200 4 2 1 1 312 260 265 402
1201 4 2 1 1 316 320 321 401
1202 4 2 1 1 251 249 254 411
1203 4 2 1 1 318 320 319 406
1204 4 2 1 1 216 76 215 282
1205 4 2 1 1 180 185 52 257
1206 4 2 1 1 223 218 72 251
1207 4 2 1 1 177 283 56 178
1208 4 2 1 1 326 308 99 296
1209 4 2 1 1 206 202 62 299
1210 4 2 1 1 294 300 82 240
1211 4 2 1 1 193 191 192 394
1212 4 2 1 1 249 94 279 250
1213 4 2 1 1 194 197 195 414
1214 4 2 1 1 287 290 291 389
1215 4 2 1 1 191 198 192 394
1216 4 2 1 1 257 185 52 264
1217 4 2 1 1 262 223 72 251
1218 4 2 1 1 174 173 269 413
1219 4 2 1 1 281 280 279 411
1220 4 2 1 1 299 202 62 303
1221 4 2 1 1 249 93 254 411
1222 4 2 1 1 176 177 178 398
1223 4 2 1 1 260 252 253 402
1224 4 2 1 1 308 295 99 296
1225 4 2 1 1 177 182 174 400
1226 4 2 1 1 281 279 94 250
1227 4 2 1 1 186 187 190 397
1228 4 2 1 1 232 243 240 410
1229 4 2 1 1 186 190 181 397
1230 4 2 1 1 300 301 304 391
1231 4 2 1 1 230 71 245 231
1232 4 2 1 1 192 248 51 193
1233 4 2 1 1 314 312 315 402
1234 4 2 1 1 255 257 264 409
1235 4 2 1 1 56 174 269 278
1236 4 2 1 1 70 252 239 230
1237 4 2 1 1 50 201 256 192
1238 4 2 1 1 255 264 247 409
1239 4 2 1 1 224 221 220 407
1240 4 2 1 1 322 320 318 406
1241 4 2 1 1 292 293 291 399
1242 4 2 1 1 242 241 325 85
1243 4 2 1 1 75 277 211 212
1244 4 2 1 1 307 300 304 391
1245 4 2 1 1 184 302 60 188
1246 4 2 1 1 315 324 263 90
1247 4 2 1 1 188 186 184 403
1248 4 2 1 1 96 273 287 288
1249 4 2 1 1 246 252 245 404
1250 4 2 1 1 274 287 290 96
1251 4 2 1 1 70 245 252 230
1252 4 2 1 1 248 50 256 192
1253 4 2 1 1 280 75 277 211
1254 4 2 1 1 214 222 79 291
1255 4 2 1 1 222 79 291 292
1256 4 2 1 1 88 87 237 314
1257 4 2 1 1 323 68 67 199
1258 4 2 1 1 173 175 268 413
1259 4 2 1 1 189 60 305 188
1260 4 2 1 1 59 58 286 176
1261 4 2 1 1 99 309 295 308
1262 4 2 1 1 226 307 227 80
1263 4 2 1 1 215 220 221 407
1264 4 2 1 1 265 260 253 402
1265 4 2 1 1 200 68 266 324
1266 4 2 1 1 65 310 204 203
1267 4 2 1 1 234 235 233 395
1268 4 2 1 1 205 171 197 414
1269 4 2 1 1 185 193 51 264
1270 4 2 1 1 71 231 223 262
1271 4 2 1 1 68 1 200 266
1272 4 2 1 1 173 268 269 413
1273 4 2 1 1 76 216 77 285
1274 4 2 1 1 260 261 313 91
1275 4 2 1 1 279 280 271 411
1276 4 2 1 1 313 260 91 312
1277 4 2 1 1 241 296 8 83
1278 4 2 1 1 57 56 284 178
1279 4 2 1 1 268 2 258 175
1280 4 2 1 1 270 267 268 413
1281 4 2 1 1 55 174 173 269
1282 4 2 1 1 202 194 189 396
1283 4 2 1 1 75 281 74 211
1284 4 2 1 1 292 226 222 80
1285 4 2 1 1 258 92 2 268
1286 4 2 1 1 298 63 203 311
1287 4 2 1 1 61 62 202 303
1288 4 2 1 1 284 56 283 178
1289 4 2 1 1 8 326 296 241
1290 4 2 1 1 54 2 268 175
1291 4 2 1 1 63 4 203 311
1292 4 2 1 1 4 63 298 311
1293 4 2 1 1 81 82 300 240
1294 4 2 1 1 239 69 252 70
1295 4 2 1 1 49 50 201 256
1296 4 2 1 1 205 197 194 414
1297 4 2 1 1 67 66 319 170
1298 4 2 1 1 189 60 61 305
1299 4 2 1 1 266 68 1 324
1300 4 2 1 1 76 216 285 282
1301 4 2 1 1 180 52 53 257
1302 4 2 1 1 218 73 72 251
1303 4 2 1 1 284 288 3 178
1304 4 2 1 1 291 79 214 78
1305 4 2 1 1 58 3 288 178
1306 4 2 1 1 70 71 245 230
1307 4 2 1 1 248 51 50 192
1308 4 2 1 1 285 216 7 290
1309 4 2 1 1 99 309 298 295
1310 4 2 1 1 78 7 216 290
1311 4 2 1 1 326 8 84 241
1312 4 2 1 1 241 84 325 85
1313 4 2 1 1 75 280 281 211
1314 4 2 1 1 316 208 86 87
1315 4 2 1 1 275 276 272 412
1316 4 2 1 1 274 290 97 96
1317 4 2 1 1 275 272 278 412
1318 4 2 1 1 55 56 174 269
1319 4 2 1 1 313 238 5 261
1320 4 2 1 1 312 260 90 265
1321 4 2 1 1 84 325 326 241
1322 4 2 1 1 269 173 55 268
1323 4 2 1 1 3 95 288 284
1324 4 2 1 1 307 81 227 80
1325 4 2 1 1 185 51 52 264
1326 4 2 1 1 71 223 72 262
1327 4 2 1 1 89 263 324 90
1328 4 2 1 1 310 65 64 203
1329 4 2 1 1 7 285 290 97
1330 4 2 1 1 6 281 250 213
1331 4 2 1 1 100 326 99 296
1332 4 2 1 1 273 96 95 288
1333 4 2 1 1 222 79 292 80
1334 4 2 1 1 60 59 302 184
1335 4 2 1 1 288 95 273 284
1336 4 2 1 1 173 54 55 268
1337 4 2 1 1 321 85 86 207
1338 4 2 1 1 64 310 203 311
1339 4 2 1 1 65 66 169 318
1340 4 2 1 1 281 94 6 250
1341 4 2 1 1 285 290 97 274
1342 4 2 1 1 250 73 6 213
1343 4 2 1 1 83 244 294 82
1344 4 2 1 1 173 54 268 175
1345 4 2 1 1 8 326 100 296
1346 4 2 1 1 91 260 90 312
1347 4 2 1 1 98 309 298 99
1348 4 2 1 1 75 277 212 76
1349 4 2 1 1 206 62 63 299
1350 4 2 1 1 279 94 249 93
1351 4 2 1 1 1 266 324 89
1352 4 2 1 1 5 88 238 313
1353 4 2 1 1 270 93 259 92
1354 4 2 1 1 258 2 53 175
1355 4 2 1 1 213 6 281 74
1356 4 2 1 1 269 268 267 413
1357 4 2 1 1 281 213 74 211
1358 4 2 1 1 5 313 261 91
1359 4 2 1 1 203 4 64 311
1360 4 2 1 1 311 298 4 98
1361 4 2 1 1 238 69 5 261
1362 4 2 1 1 1 49 200 266
1363 4 2 1 1 284 3 57 178
1364 4 2 1 1 77 216 7 285
1365 4 2 1 1 263 324 266 89
1366 4 2 1 1 298 311 309 98
1367 4 2 1 1 402 236 404 384
1368 4 2 1 1 402 404 236 239
1369 4 2 1 1 407 222 224 221
1370 4 2 1 1 407 224 222 399
1371 4 2 1 1 395 236 217 384
1372 4 2 1 1 395 217 236 234
1373 4 2 1 1 392 405 397 382
1374 4 2 1 1 397 405 392 383
1375 4 2 1 1 410 242 244 387
1376 4 2 1 1 410 244 242 243
1377 4 2 1 1 392 227 233 225
1378 4 2 1 1 392 233 227 391
1379 4 2 1 1 267 411 270 271
1380 4 2 1 1 270 411 267 413
1381 4 2 1 1 411 275 280 271
1382 4 2 1 1 411 280 275 390
1383 4 2 1 1 412 413 269 275
1384 4 2 1 1 269 413 412 400
1385 4 2 1 1 405 189 383 187
1386 4 2 1 1 405 383 189 396
1387 4 2 1 1 396 299 297 303
1388 4 2 1 1 396 297 299 388
1389 4 2 1 1 407 412 212 390
1390 4 2 1 1 407 212 412 276
1391 4 2 1 1 277 212 412 390
1392 4 2 1 1 277 412 212 276
1393 4 2 1 1 396 61 305 189
1394 4 2 1 1 396 305 61 303
1395 4 2 1 1 410 233 235 395
1396 4 2 1 1 410 235 233 232
1397 4 2 1 1 411 413 259 385
1398 4 2 1 1 259 413 411 270
$EndElements
